<svg version="1.1" id="svg1" width="920" height="390" viewBox="350 610 920 390" sodipodi:docname="style-minimalist-modern-and-geometric-vector-logo.svg" inkscape:version="1.4.3 (0d15f75, 2025-12-25)" xmlns:inkscape="http://www.inkscape.org/namespaces/inkscape" xmlns:sodipodi="http://sodipodi.sourceforge.net/DTD/sodipodi-0.dtd" xmlns="http://www.w3.org/2000/svg" xmlns:svg="http://www.w3.org/2000/svg">
  <defs id="defs1"></defs>
  <sodipodi:namedview id="namedview1" pagecolor="#ffffff" bordercolor="#000000" borderopacity="0.25" inkscape:showpageshadow="2" inkscape:pageopacity="0.0" inkscape:pagecheckerboard="0" inkscape:deskcolor="#d1d1d1" inkscape:zoom="0.2765625" inkscape:cx="50.621469" inkscape:cy="739.43503" inkscape:window-width="1920" inkscape:window-height="1009" inkscape:window-x="-8" inkscape:window-y="57" inkscape:window-maximized="1" inkscape:current-layer="g1"></sodipodi:namedview>
  <g inkscape:groupmode="layer" inkscape:label="Image" id="g1">
    <g id="g15" transform="translate(7.2316305,7.231638)">
      
      
      <path style="fill:#cdd1cd" d="m 571.75,965.75585 c 0.9625,-0.38516 2.1125,-0.33779 2.55556,0.10526 0.44305,0.44306 -0.34445,0.75819 -1.75,0.70029 -1.55326,-0.064 -1.8692,-0.37992 -0.80556,-0.80555 z m 13.33333,0 c 0.9625,-0.38516 2.1125,-0.33779 2.55556,0.10526 0.44305,0.44306 -0.34445,0.75819 -1.75,0.70029 -1.55326,-0.064 -1.8692,-0.37992 -0.80556,-0.80555 z m 230.66667,0 c 0.9625,-0.38516 2.1125,-0.33779 2.55556,0.10526 0.44305,0.44306 -0.34445,0.75819 -1.75,0.70029 -1.55326,-0.064 -1.8692,-0.37992 -0.80556,-0.80555 z m 10.66667,0 c 0.9625,-0.38516 2.1125,-0.33779 2.55555,0.10526 0.44306,0.44306 -0.34444,0.75819 -1.75,0.70029 -1.55326,-0.064 -1.8692,-0.37992 -0.80555,-0.80555 z m 106.66666,0 c 0.9625,-0.38516 2.1125,-0.33779 2.55556,0.10526 0.44305,0.44306 -0.34445,0.75819 -1.75,0.70029 -1.55326,-0.064 -1.8692,-0.37992 -0.80556,-0.80555 z m 13.33334,0 c 0.9625,-0.38516 2.1125,-0.33779 2.55555,0.10526 0.44306,0.44306 -0.34444,0.75819 -1.75,0.70029 -1.55326,-0.064 -1.8692,-0.37992 -0.80555,-0.80555 z m 228.00003,0 c 0.9625,-0.38516 2.1125,-0.33779 2.5555,0.10526 0.4431,0.44306 -0.3444,0.75819 -1.75,0.70029 -1.5532,-0.064 -1.8692,-0.37992 -0.8055,-0.80555 z m 12,0 c 0.9625,-0.38516 2.1125,-0.33779 2.5555,0.10526 0.4431,0.44306 -0.3444,0.75819 -1.75,0.70029 -1.5532,-0.064 -1.8692,-0.37992 -0.8055,-0.80555 z m -107.6389,-0.79981 c 0.3055,-0.20751 1.7555,-1.25751 3.2222,-2.33333 2.4667,-1.80935 2.5294,-1.78105 0.8367,0.37729 -1.0064,1.28333 -2.4564,2.33333 -3.2222,2.33333 -0.7657,0 -1.1423,-0.16978 -0.8367,-0.37729 z M 371.2652,916.66667 c 4.8e-4,-24.93334 0.18034,-34.94492 0.39969,-22.24798 0.21935,12.69695 0.21895,33.09695 -8.7e-4,45.33334 -0.21983,12.23638 -0.3993,1.84797 -0.39882,-23.08536 z M 513.90505,930 c 9.4e-4,-16.86667 0.19202,-23.58281 0.42462,-14.92477 0.23261,8.65804 0.23185,22.45804 -0.002,30.66666 -0.23354,8.20863 -0.42385,1.12478 -0.42292,-15.74189 z m 228.04433,-32.66667 c 0,-34.83333 0.17225,-49.08333 0.38277,-31.66666 0.21053,17.41666 0.21053,45.91666 0,63.33333 -0.21052,17.41667 -0.38277,3.16667 -0.38277,-31.66667 z m 114.27476,58.25465 c -0.16041,-3.63454 -0.69807,-4.81112 -1.89081,-4.13773 -1.32315,0.74702 -1.32773,0.57545 -0.0222,-0.83242 2.38456,-2.57154 3.27319,-0.93457 2.66816,4.91508 l -0.531,5.13376 z M 1007.2067,957 l -2.54,-3 3,2.53998 c 2.8192,2.38696 3.607,3.46002 2.54,3.46002 -0.2531,0 -1.6031,-1.35 -3,-3 z m 116.0765,-60.33333 c 2e-4,-35.2 0.1724,-49.40852 0.3825,-31.57449 0.2102,17.83403 0.21,46.63403 -4e-4,64 -0.2104,17.36597 -0.3824,2.77449 -0.3821,-32.42551 z m -479.45327,59.66666 c -1.6585,-2.11474 -1.61134,-2.1619 0.5034,-0.5034 1.28334,1.00646 2.33334,2.05646 2.33334,2.33333 0,1.09738 -1.09492,0.39107 -2.83674,-1.82993 z M 696,958.24945 c 0,-0.22946 1.95,-2.17946 4.33333,-4.33333 L 704.66667,950 l -3.91612,4.33333 C 697.10017,958.37261 696,959.27954 696,958.24945 Z m 369.488,-2.12277 c -0.1538,-3.18771 -0.1724,-3.19164 -3.1547,-0.66666 l -3,2.53998 2.5685,-3.0315 c 2.8213,-3.32985 5.4314,-2.2031 4.3779,1.88987 -0.4937,1.91824 -0.6718,1.75365 -0.7917,-0.73169 z M 789.87332,953 l -2.53999,-3 3,2.53998 c 2.81926,2.38696 3.60699,3.46002 2.53999,3.46002 -0.25301,0 -1.60301,-1.35 -3,-3 z m 115.3591,-0.66667 -3.23242,-3.66666 3.66667,3.23242 c 2.01666,1.77783 3.66666,3.42783 3.66666,3.66666 0,1.0457 -1.07973,0.19464 -4.10091,-3.23242 z m 71.43425,1 c 1.32731,-1.46666 2.7133,-2.66666 3.07996,-2.66666 0.36667,0 -0.41931,1.2 -1.74663,2.66666 C 976.67268,954.8 975.2867,956 974.92003,956 c -0.36666,0 0.41932,-1.2 1.74664,-2.66667 z m -303,-2.25243 c 1.28333,-0.33537 3.38333,-0.33537 4.66666,0 1.28334,0.33537 0.23334,0.60976 -2.33333,0.60976 -2.56667,0 -3.61667,-0.27439 -2.33333,-0.60976 z m 362.69203,-0.005 c 1.2973,-0.33806 3.0973,-0.31582 4,0.0494 0.9027,0.36523 -0.1587,0.64182 -2.3587,0.61465 -2.2,-0.0272 -2.9386,-0.326 -1.6413,-0.66406 z M 577,949.72569 c 1.65,-0.3178 4.35,-0.3178 6,0 1.65,0.3178 0.3,0.57782 -3,0.57782 -3.3,0 -4.65,-0.26002 -3,-0.57782 z m 246.66667,0.0579 c 0.91666,-0.36989 2.41666,-0.36989 3.33333,0 0.91667,0.36988 0.16667,0.67251 -1.66667,0.67251 -1.83333,0 -2.58333,-0.30263 -1.66666,-0.67251 z m 116.01554,-0.06 c 1.65855,-0.31892 4.05855,-0.30681 5.33334,0.0269 1.27478,0.33372 -0.0822,0.59466 -3.01555,0.57986 -2.93333,-0.0148 -3.97634,-0.28784 -2.31779,-0.60677 z m -281.18562,-4.05698 c -1.65849,-2.11474 -1.61133,-2.1619 0.50341,-0.50341 2.221,1.74183 2.92731,2.83674 1.82993,2.83674 -0.27688,0 -1.32688,-1.05 -2.33334,-2.33333 z m 398.83671,-0.83674 c 0,-0.27688 1.05,-1.32688 2.3334,-2.33334 2.1147,-1.65849 2.1619,-1.61133 0.5034,0.50341 -1.7419,2.221 -2.8368,2.92731 -2.8368,1.82993 z m -501.43421,-4.4966 -3.23242,-3.66666 3.66666,3.23242 c 3.42706,3.02118 4.27812,4.10091 3.23242,4.10091 -0.23883,0 -1.88883,-1.65 -3.66666,-3.66667 z m 687.85091,1.42252 c 0.9625,-0.38516 2.1125,-0.33779 2.5556,0.10526 0.443,0.44306 -0.3445,0.75819 -1.75,0.70029 -1.5533,-0.064 -1.8692,-0.37992 -0.8056,-0.80555 z M 654.976,936 c 0,-2.56667 0.2744,-3.61667 0.60977,-2.33333 0.33537,1.28333 0.33537,3.38333 0,4.66666 C 655.2504,939.61667 654.976,938.56667 654.976,936 Z m -44.55933,0.42251 c 0.9625,-0.38516 2.1125,-0.33779 2.55555,0.10527 0.44306,0.44305 -0.34444,0.75818 -1.75,0.70029 -1.55326,-0.064 -1.8692,-0.37992 -0.80555,-0.80556 z m -80.70198,-19.75584 c 0.01,-3.66667 0.26895,-5.00842 0.57542,-2.98167 0.30647,2.02675 0.29828,5.02675 -0.0182,6.66667 -0.31648,1.63991 -0.56723,-0.0183 -0.55722,-3.685 z m 159.36864,3.75584 c 0.9625,-0.38516 2.1125,-0.33779 2.55556,0.10527 0.44305,0.44305 -0.34445,0.75818 -1.75,0.70029 -1.55326,-0.064 -1.8692,-0.37992 -0.80556,-0.80556 z m 362.58337,0.0278 c 0.9166,-0.36988 2.4166,-0.36988 3.3333,0 0.9167,0.36989 0.1667,0.67252 -1.6667,0.67252 -1.8333,0 -2.5833,-0.30263 -1.6666,-0.67252 z M 856.30934,916 c 0,-2.56667 0.27439,-3.61667 0.60976,-2.33333 0.33537,1.28333 0.33537,3.38333 0,4.66666 -0.33537,1.28334 -0.60976,0.23334 -0.60976,-2.33333 z m -230.76548,0 c 0,-1.83333 0.30263,-2.58333 0.67251,-1.66667 0.36989,0.91667 0.36989,2.41667 0,3.33334 -0.36988,0.91666 -0.67251,0.16666 -0.67251,-1.66667 z m -76.67407,-7.66667 c -0.34151,-0.55 8.17308,-0.84501 18.92131,-0.65558 36.06912,0.63569 39.75384,1.11697 10.62092,1.38726 -15.90672,0.14758 -29.20072,-0.18168 -29.54223,-0.73168 z M 920,908.40942 c 24.59681,-0.95253 49.03157,-0.99089 48.46354,-0.0761 -0.3415,0.55 -13.63551,0.87926 -29.54223,0.73168 C 923.01459,908.91743 914.5,908.62242 920,908.40942 Z m -253.58333,-2.65357 c 0.9625,-0.38516 2.1125,-0.33779 2.55555,0.10526 0.44306,0.44306 -0.34444,0.75819 -1.75,0.70029 -1.55326,-0.064 -1.8692,-0.37992 -0.80555,-0.80555 z m 362.66663,0 c 0.9625,-0.38516 2.1125,-0.33779 2.5556,0.10526 0.443,0.44306 -0.3445,0.75819 -1.75,0.70029 -1.5533,-0.064 -1.8692,-0.37992 -0.8056,-0.80555 z M 803.33333,892 c 1.32732,-1.46667 2.7133,-2.66667 3.07997,-2.66667 0.36667,0 -0.41932,1.2 -1.74663,2.66667 -1.32732,1.46667 -2.7133,2.66667 -3.07997,2.66667 -0.36667,0 0.41932,-1.2 1.74663,-2.66667 z M 556.66667,890.66667 C 557.99398,889.2 559.37997,888 559.74663,888 c 0.36667,0 -0.41931,1.2 -1.74663,2.66667 -1.32732,1.46666 -2.7133,2.66666 -3.07997,2.66666 -0.36666,0 0.41932,-1.2 1.74664,-2.66666 z M 854.49659,883 c -1.65849,-2.11474 -1.61133,-2.1619 0.50341,-0.50341 1.28333,1.00646 2.33333,2.05646 2.33333,2.33334 0,1.09738 -1.09491,0.39107 -2.83674,-1.82993 z m -441.41326,0.0892 c 0.9625,-0.38516 2.1125,-0.33779 2.55556,0.10526 0.44305,0.44306 -0.34445,0.75819 -1.75,0.7003 -1.55326,-0.064 -1.8692,-0.37992 -0.80556,-0.80556 z m 60.58334,-0.008 c 1.28333,-0.33537 3.38333,-0.33537 4.66666,0 1.28334,0.33537 0.23334,0.60976 -2.33333,0.60976 -2.56667,0 -3.61667,-0.27439 -2.33333,-0.60976 z m 200.75,0.008 c 0.9625,-0.38516 2.1125,-0.33779 2.55555,0.10526 0.44306,0.44306 -0.34444,0.75819 -1.75,0.7003 -1.55326,-0.064 -1.8692,-0.37992 -0.80555,-0.80556 z m 148.60871,-0.0132 c 1.29729,-0.33806 3.09729,-0.31582 4,0.0494 0.90271,0.36523 -0.15871,0.64182 -2.35871,0.61465 -2.2,-0.0272 -2.93858,-0.326 -1.64129,-0.66406 z m 79.64129,0.50678 c 0,-0.22947 1.95,-2.17947 4.33333,-4.33334 l 4.33333,-3.91612 -3.91612,4.33334 c -3.65037,4.03927 -4.75054,4.9462 -4.75054,3.91612 z M 644,879.49659 c 0,-0.27687 1.05,-1.32687 2.33333,-2.33333 2.11474,-1.65849 2.1619,-1.61133 0.50341,0.50341 -1.74183,2.22099 -2.83674,2.9273 -2.83674,1.82992 z m -140.79335,-3.82992 -2.53998,-3 3,2.53998 c 2.81926,2.38696 3.60698,3.46002 2.53998,3.46002 -0.25301,0 -1.60301,-1.35 -3,-3 z m 353.33,-18.33334 c 0,-11.36666 0.20449,-16.01666 0.45443,-10.33333 0.24993,5.68333 0.24993,14.98333 0,20.66667 -0.24994,5.68333 -0.45443,1.03333 -0.45443,-10.33334 z m -468.43139,16.55556 c 0.064,-1.55326 0.37992,-1.8692 0.80556,-0.80556 0.38516,0.9625 0.33779,2.1125 -0.10526,2.55556 -0.44306,0.44305 -0.75819,-0.34445 -0.7003,-1.75 z m 286.31141,-6.79971 c 0.9625,-0.38516 2.1125,-0.33779 2.55555,0.10526 0.44306,0.44306 -0.34444,0.75819 -1.75,0.7003 -1.55326,-0.064 -1.8692,-0.37992 -0.80555,-0.80556 z m 13.33333,0 c 0.9625,-0.38516 2.1125,-0.33779 2.55556,0.10526 0.44305,0.44306 -0.34445,0.75819 -1.75,0.7003 -1.55326,-0.064 -1.8692,-0.37992 -0.80556,-0.80556 z m 140,0 c 0.9625,-0.38516 2.1125,-0.33779 2.55556,0.10526 0.44305,0.44306 -0.34445,0.75819 -1.75,0.7003 -1.55326,-0.064 -1.8692,-0.37992 -0.80556,-0.80556 z m 209.3333,0 c 0.9625,-0.38516 2.1125,-0.33779 2.5556,0.10526 0.443,0.44306 -0.3445,0.75819 -1.75,0.7003 -1.5533,-0.064 -1.8692,-0.37992 -0.8056,-0.80556 z m 11.9167,0.0278 c 0.9167,-0.36988 2.4167,-0.36988 3.3333,0 0.9167,0.36988 0.1667,0.67251 -1.6666,0.67251 -1.8334,0 -2.5834,-0.30263 -1.6667,-0.67251 z m 122.75,-0.0278 c 0.9625,-0.38516 2.1125,-0.33779 2.5556,0.10526 0.443,0.44306 -0.3445,0.75819 -1.75,0.7003 -1.5533,-0.064 -1.8692,-0.37992 -0.8056,-0.80556 z m 12,0 c 0.9625,-0.38516 2.1125,-0.33779 2.5556,0.10526 0.443,0.44306 -0.3445,0.75819 -1.75,0.7003 -1.5533,-0.064 -1.8692,-0.37992 -0.8056,-0.80556 z m -123.3913,-76.01317 c 1.2973,-0.33806 3.0973,-0.31582 4,0.0494 0.9027,0.36523 -0.1587,0.64182 -2.3587,0.61465 -2.2,-0.0272 -2.9386,-0.326 -1.6413,-0.66406 z m 19.3913,-17.32016 c 0.9625,-0.38516 2.1125,-0.33779 2.5556,0.10526 0.443,0.44306 -0.3445,0.75819 -1.75,0.70029 -1.5533,-0.064 -1.8692,-0.37992 -0.8056,-0.80555 z M 961.16326,757.66667 c -1.65849,-2.11474 -1.61133,-2.1619 0.50341,-0.50341 1.28333,1.00646 2.33333,2.05646 2.33333,2.33333 0,1.09738 -1.09491,0.39107 -2.83674,-1.82992 z m 212.17004,-2.17008 c 0,-0.27687 1.05,-1.32687 2.3334,-2.33333 2.1147,-1.65849 2.1619,-1.61133 0.5034,0.50341 -1.7419,2.22099 -2.8368,2.9273 -2.8368,1.82992 z M 463,748.33658 c 10.08333,-0.22651 26.58333,-0.22651 36.66667,0 10.08333,0.22651 1.83333,0.41183 -18.33334,0.41183 -20.16666,0 -28.41666,-0.18532 -18.33333,-0.41183 z m 117.97026,-1.29889 c 2.36698,-0.29455 6.56698,-0.29939 9.33333,-0.0108 2.76636,0.28863 0.82974,0.52962 -4.30359,0.53554 -5.13333,0.006 -7.39672,-0.23024 -5.02974,-0.52479 z m 600.36304,0.4589 c 0,-0.27687 1.05,-1.32687 2.3334,-2.33333 2.1147,-1.65849 2.1619,-1.61133 0.5034,0.50341 -1.7419,2.22099 -2.8368,2.9273 -2.8368,1.82992 z m -555.66663,-1.78493 c 2.01666,-0.3055 5.31666,-0.3055 7.33333,0 2.01667,0.3055 0.36667,0.55545 -3.66667,0.55545 -4.03333,0 -5.68333,-0.24995 -3.66666,-0.55545 z m 37.35871,-1.30231 c 1.29729,-0.33806 3.09729,-0.31583 4,0.0494 0.90271,0.36523 -0.15871,0.64182 -2.35871,0.61465 -2.2,-0.0272 -2.93858,-0.326 -1.64129,-0.66405 z m 498.30792,0.42058 c 0,-0.27688 1.05,-1.32688 2.3334,-2.33334 2.1147,-1.65849 2.1619,-1.61133 0.5034,0.50341 -1.7419,2.221 -2.8368,2.92731 -2.8368,1.82993 z M 689.66667,743.0809 c 1.28333,-0.33537 3.38333,-0.33537 4.66666,0 1.28334,0.33537 0.23334,0.60976 -2.33333,0.60976 -2.56667,0 -3.61667,-0.27439 -2.33333,-0.60976 z m 25.35871,-1.33822 c 1.29729,-0.33806 3.09729,-0.31583 4,0.0494 0.90271,0.36524 -0.15871,0.64183 -2.35871,0.61466 -2.2,-0.0272 -2.93858,-0.326 -1.64129,-0.66406 z m 249.5146,-2.07601 -2.53998,-3 3,2.53998 c 1.65,1.39699 3,2.74699 3,3 0,1.067 -1.07306,0.27928 -3.46002,-2.53998 z M 735.75,740.42251 c 0.9625,-0.38516 2.1125,-0.33779 2.55556,0.10527 0.44305,0.44305 -0.34445,0.75818 -1.75,0.70029 -1.55326,-0.064 -1.8692,-0.37992 -0.80556,-0.80556 z m 18.58333,-1.30555 c 0.91667,-0.36988 2.41667,-0.36988 3.33334,0 0.91666,0.36988 0.16666,0.67251 -1.66667,0.67251 -1.83333,0 -2.58333,-0.30263 -1.66667,-0.67251 z M 771.75,737.75585 c 0.9625,-0.38516 2.1125,-0.33779 2.55556,0.10526 0.44305,0.44306 -0.34445,0.75819 -1.75,0.70029 -1.55326,-0.064 -1.8692,-0.37992 -0.80556,-0.80555 z m 13.33333,-1.33334 c 0.9625,-0.38516 2.1125,-0.33779 2.55556,0.10527 0.44305,0.44305 -0.34445,0.75818 -1.75,0.70029 -1.55326,-0.064 -1.8692,-0.37992 -0.80556,-0.80556 z m -317.33425,-4.08693 c 11.22866,-0.22326 29.22866,-0.22277 40,10e-4 10.77134,0.22386 1.58425,0.40652 -20.41575,0.40592 -22,-5.9e-4 -30.81291,-0.18375 -19.58425,-0.407 z M 583,731.04499 c 2.01667,-0.3055 5.31667,-0.3055 7.33333,0 2.01667,0.3055 0.36667,0.55546 -3.66666,0.55546 -4.03334,0 -5.68334,-0.24996 -3.66667,-0.55546 z m 43.33333,-1.3193 c 1.65,-0.3178 4.35,-0.3178 6,0 1.65,0.3178 0.3,0.57782 -3,0.57782 -3.3,0 -4.65,-0.26002 -3,-0.57782 z m 32.685,-1.34913 c 2.02675,-0.30647 5.02675,-0.29828 6.66667,0.0182 1.63992,0.31648 -0.0183,0.56723 -3.685,0.55722 -3.66667,-0.01 -5.00842,-0.26895 -2.98167,-0.57542 z m 32.00705,-1.30055 c 1.29729,-0.33806 3.09729,-0.31582 4,0.0494 0.90271,0.36523 -0.15871,0.64182 -2.35871,0.61465 -2.2,-0.0272 -2.93858,-0.326 -1.64129,-0.66406 z m 24,-1.33333 c 1.29729,-0.33806 3.09729,-0.31583 4,0.0494 0.90271,0.36524 -0.15871,0.64183 -2.35871,0.61466 -2.2,-0.0272 -2.93858,-0.326 -1.64129,-0.66406 z m 20.64129,-1.29239 c 0.91666,-0.36988 2.41666,-0.36988 3.33333,0 0.91667,0.36989 0.16667,0.67252 -1.66667,0.67252 -1.83333,0 -2.58333,-0.30263 -1.66666,-0.67252 z m 20,-1.33333 c 0.91666,-0.36988 2.41666,-0.36988 3.33333,0 0.91667,0.36988 0.16667,0.67251 -1.66667,0.67251 -1.83333,0 -2.58333,-0.30263 -1.66666,-0.67251 z m 17.41666,-1.36111 c 0.9625,-0.38516 2.1125,-0.33779 2.55556,0.10526 0.44305,0.44306 -0.34445,0.75819 -1.75,0.70029 -1.55326,-0.064 -1.8692,-0.37992 -0.80556,-0.80555 z m 36,-4 c 0.9625,-0.38516 2.1125,-0.33779 2.55556,0.10526 0.44305,0.44306 -0.34445,0.75819 -1.75,0.70029 -1.55326,-0.064 -1.8692,-0.37992 -0.80556,-0.80555 z m -388.72018,-7.08918 c 0,-3.3 0.26002,-4.65 0.57783,-3 0.3178,1.65 0.3178,4.35 0,6 -0.31781,1.65 -0.57783,0.3 -0.57783,-3 z m 777.23015,-2 c 0.027,-2.2 0.326,-2.93858 0.664,-1.64129 0.3381,1.29729 0.3158,3.09729 -0.049,4 -0.3652,0.90271 -0.6418,-0.15871 -0.6146,-2.35871 z m -16.1547,-0.11111 c 0.064,-1.55326 0.3799,-1.8692 0.8056,-0.80556 0.3851,0.9625 0.3377,2.1125 -0.1053,2.55556 -0.4431,0.44305 -0.7582,-0.34445 -0.7003,-1.75 z M 815.75,705.75585 c 0.9625,-0.38516 2.1125,-0.33779 2.55556,0.10526 0.44305,0.44306 -0.34445,0.75819 -1.75,0.70029 -1.55326,-0.064 -1.8692,-0.37992 -0.80556,-0.80555 z m -24,-2.66667 c 0.9625,-0.38516 2.1125,-0.33779 2.55556,0.10526 0.44305,0.44306 -0.34445,0.75819 -1.75,0.7003 -1.55326,-0.064 -1.8692,-0.37992 -0.80556,-0.80556 z m -13.33333,-1.33333 c 0.9625,-0.38516 2.1125,-0.33779 2.55555,0.10526 0.44306,0.44306 -0.34444,0.75819 -1.75,0.70029 -1.55326,-0.064 -1.8692,-0.37992 -0.80555,-0.80555 z m -13.33334,-1.33334 c 0.9625,-0.38516 2.1125,-0.33779 2.55556,0.10527 0.44305,0.44305 -0.34445,0.75818 -1.75,0.70029 -1.55326,-0.064 -1.8692,-0.37992 -0.80556,-0.80556 z M 749,699.11696 c 0.91667,-0.36988 2.41667,-0.36988 3.33333,0 0.91667,0.36988 0.16667,0.67251 -1.66666,0.67251 -1.83334,0 -2.58334,-0.30263 -1.66667,-0.67251 z m -14.58333,-1.36111 c 0.9625,-0.38516 2.1125,-0.33779 2.55555,0.10526 0.44306,0.44306 -0.34444,0.75819 -1.75,0.70029 -1.55326,-0.064 -1.8692,-0.37992 -0.80555,-0.80555 z m -18.75,-1.30556 c 0.91666,-0.36988 2.41666,-0.36988 3.33333,0 0.91667,0.36989 0.16667,0.67252 -1.66667,0.67252 -1.83333,0 -2.58333,-0.30263 -1.66666,-0.67252 z M 697,695.11696 c 0.91667,-0.36988 2.41667,-0.36988 3.33333,0 0.91667,0.36988 0.16667,0.67251 -1.66666,0.67251 -1.83334,0 -2.58334,-0.30263 -1.66667,-0.67251 z m -20,-1.33333 c 0.91667,-0.36989 2.41667,-0.36989 3.33333,0 0.91667,0.36988 0.16667,0.67251 -1.66666,0.67251 -1.83334,0 -2.58334,-0.30263 -1.66667,-0.67251 z m -19.30796,-1.37428 c 1.29729,-0.33806 3.09729,-0.31583 4,0.0494 0.90271,0.36523 -0.15871,0.64182 -2.35871,0.61465 -2.2,-0.0272 -2.93858,-0.326 -1.64129,-0.66405 z m -56.67649,-2.6857 c 1.65855,-0.31892 4.05855,-0.30681 5.33333,0.0269 1.27478,0.33372 -0.0822,0.59466 -3.01555,0.57986 -2.93333,-0.0148 -3.97633,-0.28784 -2.31778,-0.60677 z m -42.65834,-1.35663 c 2.39647,-0.29674 5.99647,-0.29062 8,0.0136 2.00354,0.30423 0.0428,0.54703 -4.35721,0.53954 -4.4,-0.007 -6.03925,-0.2564 -3.64279,-0.55315 z m 248.05946,0.0555 c 0.9625,-0.38516 2.1125,-0.33779 2.55555,0.10527 0.44306,0.44305 -0.34444,0.75818 -1.75,0.70029 -1.55326,-0.064 -1.8692,-0.37992 -0.80555,-0.80556 z m -334.75,-1.4055 c 3.85,-0.26934 10.15,-0.26934 14,0 3.85,0.26934 0.7,0.4897 -7,0.4897 -7.7,0 -10.85,-0.22036 -7,-0.4897 z m 322.75,0.0722 c 0.9625,-0.38516 2.1125,-0.33779 2.55555,0.10526 0.44306,0.44306 -0.34444,0.75819 -1.75,0.7003 -1.55326,-0.064 -1.8692,-0.37992 -0.80555,-0.80556 z m -13.33334,-1.33333 c 0.9625,-0.38516 2.1125,-0.33779 2.55556,0.10526 0.44305,0.44306 -0.34445,0.75819 -1.75,0.70029 -1.55326,-0.064 -1.8692,-0.37992 -0.80556,-0.80555 z m -14.75,-1.30556 c 0.91667,-0.36988 2.41667,-0.36988 3.33334,0 0.91666,0.36989 0.16666,0.67252 -1.66667,0.67252 -1.83333,0 -2.58333,-0.30263 -1.66667,-0.67252 z m -15.91666,-1.36111 c 0.9625,-0.38516 2.1125,-0.33779 2.55555,0.10526 0.44306,0.44306 -0.34444,0.75819 -1.75,0.7003 -1.55326,-0.064 -1.8692,-0.37992 -0.80555,-0.80556 z m -16.08334,-1.30555 c 0.91667,-0.36989 2.41667,-0.36989 3.33334,0 0.91666,0.36988 0.16666,0.67251 -1.66667,0.67251 -1.83333,0 -2.58333,-0.30263 -1.66667,-0.67251 z m -18.66666,-1.33334 c 0.91666,-0.36988 2.41666,-0.36988 3.33333,0 0.91667,0.36989 0.16667,0.67252 -1.66667,0.67252 -1.83333,0 -2.58333,-0.30263 -1.66666,-0.67252 z M 698.33333,679.117 c 0.91667,-0.36988 2.41667,-0.36988 3.33334,0 0.91666,0.36988 0.16666,0.67251 -1.66667,0.67251 -1.83333,0 -2.58333,-0.30263 -1.66667,-0.67251 z m 266.33334,-1.78363 c 1.32731,-1.46666 2.7133,-2.66666 3.07996,-2.66666 0.36667,0 -0.41931,1.2 -1.74663,2.66666 C 964.67268,678.8 963.2867,680 962.92003,680 c -0.36666,0 0.41932,-1.2 1.74664,-2.66667 z m -285.64129,0.40935 c 1.29729,-0.33806 3.09729,-0.31583 4,0.0494 0.90271,0.36524 -0.15871,0.64183 -2.35871,0.61466 -2.2,-0.0272 -2.93858,-0.326 -1.64129,-0.66406 z m -20,-1.33333 c 1.29729,-0.33806 3.09729,-0.31583 4,0.0494 0.90271,0.36523 -0.15871,0.64182 -2.35871,0.61465 -2.2,-0.0272 -2.93858,-0.326 -1.64129,-0.66405 z m -56.6765,-2.6857 c 1.65855,-0.31892 4.05855,-0.30681 5.33333,0.0269 1.27479,0.33372 -0.0822,0.59466 -3.01554,0.57986 -2.93334,-0.0148 -3.97634,-0.28784 -2.31779,-0.60677 z m -42.65833,-1.35663 c 2.39646,-0.29674 5.99646,-0.29062 8,0.0136 2.00353,0.30423 0.0428,0.54703 -4.35722,0.53954 -4.4,-0.007 -6.03925,-0.2564 -3.64278,-0.55315 z m 399.64278,-11.03369 c 1.32732,-1.46666 2.7133,-2.66666 3.07997,-2.66666 0.36667,0 -0.41932,1.2 -1.74663,2.66666 C 959.33935,662.8 957.95337,664 957.5867,664 c -0.36667,0 0.41932,-1.2 1.74663,-2.66667 z M 1075.75,643.08918 c 0.9625,-0.38516 2.1125,-0.33779 2.5556,0.10526 0.443,0.44306 -0.3445,0.75819 -1.75,0.7003 -1.5533,-0.064 -1.8692,-0.37992 -0.8056,-0.80556 z m -31.6447,-5.20029 c 0.064,-1.55326 0.3799,-1.8692 0.8055,-0.80556 0.3852,0.9625 0.3378,2.1125 -0.1052,2.55556 -0.4431,0.44305 -0.7582,-0.34445 -0.7003,-1.75 z m 0,-5.33333 c 0.064,-1.55326 0.3799,-1.8692 0.8055,-0.80556 0.3852,0.9625 0.3378,2.1125 -0.1052,2.55556 -0.4431,0.44305 -0.7582,-0.34445 -0.7003,-1.75 z m -5.6886,-5.46638 c 0.9625,-0.38516 2.1125,-0.33779 2.5555,0.10526 0.4431,0.44306 -0.3444,0.75819 -1.75,0.7003 -1.5532,-0.064 -1.8692,-0.37992 -0.8055,-0.80556 z m 37.25,0.0278 c 0.9166,-0.36988 2.4166,-0.36988 3.3333,0 0.9167,0.36988 0.1667,0.67251 -1.6667,0.67251 -1.8333,0 -2.5833,-0.30263 -1.6666,-0.67251 z" id="path20" data-index="2"></path>
      <path style="fill:#9da39f" d="m 577.01555,965.72365 c 1.65855,-0.31892 4.05855,-0.30681 5.33333,0.0269 1.27478,0.33372 -0.0822,0.59466 -3.01555,0.57986 -2.93333,-0.0148 -3.97633,-0.28784 -2.31778,-0.60677 z m 90.65112,0.002 c 1.65,-0.3178 4.35,-0.3178 6,0 1.65,0.3178 0.3,0.57782 -3,0.57782 -3.3,0 -4.65,-0.26002 -3,-0.57782 z m 152.69204,0.017 c 1.29729,-0.33806 3.09729,-0.31583 4,0.0494 0.90271,0.36524 -0.15871,0.64183 -2.35871,0.61466 -2.2,-0.0272 -2.93858,-0.326 -1.64129,-0.66406 z m 117.99017,-0.019 c 1.65855,-0.31892 4.05855,-0.30681 5.33333,0.0269 1.27479,0.33372 -0.0822,0.59466 -3.01554,0.57986 -2.93334,-0.0148 -3.97634,-0.28784 -2.31779,-0.60677 z m 91.98442,0.002 c 1.65,-0.3178 4.35,-0.3178 6,0 1.65,0.3178 0.3,0.57782 -3,0.57782 -3.3,0 -4.65,-0.26002 -3,-0.57782 z M 1179,965.74757 c 1.2833,-0.33537 3.3833,-0.33537 4.6667,0 1.2833,0.33537 0.2333,0.60976 -2.3334,0.60976 -2.5666,0 -3.6166,-0.27439 -2.3333,-0.60976 z m -801.33333,-1.33334 c 1.28333,-0.33537 3.38333,-0.33537 4.66666,0 1.28334,0.33537 0.23334,0.60977 -2.33333,0.60977 -2.56667,0 -3.61667,-0.2744 -2.33333,-0.60977 z m 62.01554,-0.0239 c 1.65855,-0.31893 4.05855,-0.30682 5.33334,0.0269 1.27478,0.33372 -0.0822,0.59466 -3.01555,0.57986 -2.93333,-0.0148 -3.97634,-0.28785 -2.31779,-0.60677 z m 62.66667,0 c 1.65855,-0.31893 4.05855,-0.30682 5.33333,0.0269 1.27479,0.33372 -0.0822,0.59466 -3.01554,0.57986 -2.93334,-0.0148 -3.97634,-0.28785 -2.31779,-0.60677 z m 208.6765,0.019 c 1.29729,-0.33806 3.09729,-0.31583 4,0.0494 0.90271,0.36523 -0.15871,0.64182 -2.35871,0.61465 -2.2,-0.0272 -2.93858,-0.326 -1.64129,-0.66405 z m 37.30795,0.005 c 1.28334,-0.33537 3.38334,-0.33537 4.66667,0 1.28333,0.33537 0.23333,0.60977 -2.33333,0.60977 -2.56667,0 -3.61667,-0.2744 -2.33334,-0.60977 z m 114.66667,0 c 1.28333,-0.33537 3.38333,-0.33537 4.66667,0 1.28333,0.33537 0.23333,0.60977 -2.33334,0.60977 -2.56666,0 -3.61666,-0.2744 -2.33333,-0.60977 z m 209.3333,0 c 1.2834,-0.33537 3.3834,-0.33537 4.6667,0 1.2833,0.33537 0.2333,0.60977 -2.3333,0.60977 -2.5667,0 -3.6167,-0.2744 -2.3334,-0.60977 z m 40.6667,0.0361 c 0.9167,-0.36988 2.4167,-0.36988 3.3333,0 0.9167,0.36989 0.1667,0.67252 -1.6666,0.67252 -1.8334,0 -2.5834,-0.30263 -1.6667,-0.67252 z M 433.89968,932 c 0,-15.76667 0.19287,-22.21667 0.4286,-14.33333 0.23573,7.88333 0.23573,20.78333 0,28.66666 -0.23573,7.88334 -0.4286,1.43334 -0.4286,-14.33333 z m 17.32724,2 c -0.001,-14.66667 0.19362,-20.84858 0.43289,-13.73759 0.23928,7.11099 0.24024,19.11099 0.002,26.66666 -0.2381,7.55568 -0.43386,1.7376 -0.43504,-12.92907 z m 398.10641,21.49659 c 0,-0.27687 1.05,-1.32687 2.33334,-2.33333 2.11474,-1.65849 2.1619,-1.61133 0.5034,0.50341 -1.74182,2.22099 -2.83674,2.9273 -2.83674,1.82992 z M 803.89909,941.66667 800.66667,938 l 3.66666,3.23242 c 3.42706,3.02118 4.27812,4.10091 3.23242,4.10091 -0.23883,0 -1.88883,-1.65 -3.66666,-3.66666 z m 113.26417,-1.33334 c -1.65849,-2.11474 -1.61133,-2.1619 0.50341,-0.5034 1.28333,1.00646 2.33333,2.05646 2.33333,2.33333 0,1.09738 -1.09491,0.39107 -2.83674,-1.82993 z m 49.50341,0.4966 c 0,-0.27688 1.05,-1.32688 2.33333,-2.33334 2.11474,-1.65849 2.1619,-1.61133 0.50341,0.50341 -1.74183,2.221 -2.83674,2.92731 -2.83674,1.82993 z M 619.75,923.08918 c 0.9625,-0.38516 2.1125,-0.33779 2.55556,0.10526 0.44305,0.44306 -0.34445,0.75819 -1.75,0.7003 -1.55326,-0.064 -1.8692,-0.37992 -0.80556,-0.80556 z m 361.33333,0 c 0.9625,-0.38516 2.1125,-0.33779 2.55556,0.10526 0.44305,0.44306 -0.34445,0.75819 -1.75,0.7003 -1.55326,-0.064 -1.8692,-0.37992 -0.80556,-0.80556 z m -204.97807,-2.53362 c 0.064,-1.55326 0.37992,-1.8692 0.80556,-0.80556 0.38516,0.9625 0.33779,2.1125 -0.10526,2.55556 -0.44306,0.44305 -0.75819,-0.34445 -0.7003,-1.75 z m -83.02193,-0.13305 c 0.9625,-0.38516 2.1125,-0.33779 2.55556,0.10527 0.44305,0.44305 -0.34445,0.75818 -1.75,0.70029 -1.55326,-0.064 -1.8692,-0.37992 -0.80556,-0.80556 z m 100.50993,-3.75584 c 0.0272,-2.2 0.326,-2.93858 0.66406,-1.64129 0.33806,1.29729 0.31583,3.09729 -0.0494,4 -0.36524,0.90271 -0.64183,-0.15871 -0.61466,-2.35871 z M 986.87719,916 c 0,-1.83333 0.30263,-2.58333 0.67252,-1.66667 0.36988,0.91667 0.36988,2.41667 0,3.33334 -0.36989,0.91666 -0.67252,0.16666 -0.67252,-1.66667 z m 18.45611,2.16326 c 0,-0.27687 1.05,-1.32687 2.3334,-2.33333 2.1147,-1.6585 2.1619,-1.61134 0.5034,0.5034 -1.7419,2.221 -2.8368,2.92731 -2.8368,1.82993 z M 776.21053,912 c 0,-1.83333 0.30263,-2.58333 0.67251,-1.66667 0.36988,0.91667 0.36988,2.41667 0,3.33334 -0.36988,0.91666 -0.67251,0.16666 -0.67251,-1.66667 z m -105.79386,-6.24415 c 0.9625,-0.38516 2.1125,-0.33779 2.55555,0.10526 0.44306,0.44306 -0.34444,0.75819 -1.75,0.70029 -1.55326,-0.064 -1.8692,-0.37992 -0.80555,-0.80555 z m 11.91666,0.0278 c 0.91667,-0.36989 2.41667,-0.36989 3.33334,0 0.91666,0.36988 0.16666,0.67251 -1.66667,0.67251 -1.83333,0 -2.58333,-0.30263 -1.66667,-0.67251 z m 350.74997,-0.0278 c 0.9625,-0.38516 2.1125,-0.33779 2.5556,0.10526 0.443,0.44306 -0.3445,0.75819 -1.75,0.70029 -1.5533,-0.064 -1.8692,-0.37992 -0.8056,-0.80555 z m 13.3334,0 c 0.9625,-0.38516 2.1125,-0.33779 2.5555,0.10526 0.4431,0.44306 -0.3444,0.75819 -1.75,0.70029 -1.5532,-0.064 -1.8692,-0.37992 -0.8055,-0.80555 z M 846.49659,892.33333 c -1.65849,-2.11474 -1.61133,-2.1619 0.50341,-0.5034 2.221,1.74182 2.92731,2.83674 1.82993,2.83674 -0.27688,0 -1.32688,-1.05 -2.33334,-2.33334 z m 113.33334,-2.66666 c -1.6585,-2.11474 -1.61134,-2.1619 0.5034,-0.50341 1.28334,1.00646 2.33334,2.05646 2.33334,2.33333 0,1.09738 -1.09492,0.39107 -2.83674,-1.82992 z m 44.27537,-2.44445 c 0.064,-1.55326 0.3799,-1.8692 0.8055,-0.80555 0.3852,0.9625 0.3378,2.1125 -0.1052,2.55555 -0.4431,0.44306 -0.7582,-0.34444 -0.7003,-1.75 z M 388.30934,880 c 0,-2.56667 0.27439,-3.61667 0.60976,-2.33333 0.33537,1.28333 0.33537,3.38333 0,4.66666 -0.33537,1.28334 -0.60976,0.23334 -0.60976,-2.33333 z M 544,880.66667 c 1.72233,-1.83334 3.4315,-3.33334 3.79817,-3.33334 0.36667,0 -0.74251,1.5 -2.46484,3.33334 C 543.61101,882.5 541.90183,884 541.53516,884 c -0.36666,0 0.74251,-1.5 2.46484,-3.33333 z m 65.87332,-1 -2.53999,-3 3,2.53998 c 2.81926,2.38696 3.60699,3.46002 2.53999,3.46002 -0.25301,0 -1.60301,-1.35 -3,-3 z M 788,882.16326 c 0,-0.27687 1.05,-1.32687 2.33333,-2.33333 2.11474,-1.6585 2.1619,-1.61134 0.50341,0.5034 -1.74183,2.221 -2.83674,2.92731 -2.83674,1.82993 z M 850.49659,879 c -1.65849,-2.11474 -1.61133,-2.1619 0.50341,-0.50341 1.28333,1.00646 2.33333,2.05646 2.33333,2.33334 0,1.09738 -1.09491,0.39107 -2.83674,-1.82993 z m 360.00001,-1.33333 c -1.6585,-2.11474 -1.6113,-2.1619 0.5034,-0.50341 2.221,1.74183 2.9273,2.83674 1.8299,2.83674 -0.2768,0 -1.3268,-1.05 -2.3333,-2.33333 z m -830.82993,-9.21638 c 0.91666,-0.36988 2.41666,-0.36988 3.33333,0 0.91667,0.36989 0.16667,0.67252 -1.66667,0.67252 -1.83333,0 -2.58333,-0.30263 -1.66666,-0.67252 z m 37.34888,-1.3933 c 1.65855,-0.31893 4.05855,-0.30682 5.33333,0.0269 1.27478,0.33373 -0.0822,0.59466 -3.01555,0.57987 -2.93333,-0.0148 -3.97633,-0.28785 -2.31778,-0.60677 z M 477,867.05902 c 1.65,-0.3178 4.35,-0.3178 6,0 1.65,0.31781 0.3,0.57783 -3,0.57783 -3.3,0 -4.65,-0.26002 -3,-0.57783 z m 98.01833,-0.0158 c 2.02675,-0.30648 5.02675,-0.29829 6.66667,0.0182 1.63992,0.31648 -0.0183,0.56723 -3.685,0.55722 -3.66667,-0.01 -5.00842,-0.26895 -2.98167,-0.57542 z m 104.66388,0.0138 c 1.65855,-0.31893 4.05855,-0.30682 5.33334,0.0269 1.27478,0.33373 -0.0822,0.59466 -3.01555,0.57987 -2.93333,-0.0148 -3.97634,-0.28785 -2.31779,-0.60677 z m 140,0 c 1.65855,-0.31893 4.05855,-0.30682 5.33334,0.0269 1.27478,0.33373 -0.0822,0.59466 -3.01555,0.57987 -2.93333,-0.0148 -3.97634,-0.28785 -2.31779,-0.60677 z M 937,867.05902 c 1.65,-0.3178 4.35,-0.3178 6,0 1.65,0.31781 0.3,0.57783 -3,0.57783 -3.3,0 -4.65,-0.26002 -3,-0.57783 z m 104.6667,0.0219 c 1.2833,-0.33537 3.3833,-0.33537 4.6666,0 1.2834,0.33537 0.2334,0.60976 -2.3333,0.60976 -2.5667,0 -3.6167,-0.27439 -2.3333,-0.60976 z m 134.6666,0 c 1.2834,-0.33537 3.3834,-0.33537 4.6667,0 1.2833,0.33537 0.2333,0.60976 -2.3333,0.60976 -2.5667,0 -3.6167,-0.27439 -2.3334,-0.60976 z m -137.9166,-77.32505 c 0.9625,-0.38516 2.1125,-0.33779 2.5555,0.10526 0.4431,0.44306 -0.3444,0.75819 -1.75,0.70029 -1.5532,-0.064 -1.8692,-0.37992 -0.8055,-0.80555 z m 38.6666,0 c 0.9625,-0.38516 2.1125,-0.33779 2.5556,0.10526 0.443,0.44306 -0.3445,0.75819 -1.75,0.70029 -1.5533,-0.064 -1.8692,-0.37992 -0.8056,-0.80555 z m -15.3983,-14.71262 c 2.0267,-0.30648 5.0267,-0.29829 6.6667,0.0182 1.6399,0.31648 -0.018,0.56723 -3.685,0.55722 -3.6667,-0.01 -5.0085,-0.26895 -2.9817,-0.57542 z M 957.16326,753.66667 c -1.65849,-2.11474 -1.61133,-2.1619 0.50341,-0.50341 2.22099,1.74183 2.9273,2.83674 1.82992,2.83674 -0.27687,0 -1.32687,-1.05 -2.33333,-2.33333 z m 220.17004,-2.17008 c 0,-0.27687 1.05,-1.32687 2.3334,-2.33333 2.1147,-1.65849 2.1619,-1.61133 0.5034,0.50341 -1.7419,2.22099 -2.8368,2.9273 -2.8368,1.82992 z m -610.97609,-4.4629 c 2.39647,-0.29675 5.99647,-0.29062 8,0.0136 2.00354,0.30423 0.0428,0.54702 -4.35721,0.53954 -4.4,-0.007 -6.03925,-0.2564 -3.64279,-0.55315 z m 49.97612,-1.28612 c 1.28334,-0.33537 3.38334,-0.33537 4.66667,0 1.28333,0.33537 0.23333,0.60976 -2.33333,0.60976 -2.56667,0 -3.61667,-0.27439 -2.33334,-0.60976 z m 38.01555,-1.35725 c 1.65855,-0.31893 4.05855,-0.30682 5.33333,0.0269 1.27479,0.33372 -0.0822,0.59466 -3.01554,0.57986 -2.93334,-0.0148 -3.97634,-0.28785 -2.31779,-0.60677 z m 28.6765,-1.31431 c 1.29729,-0.33806 3.09729,-0.31582 4,0.0494 0.90271,0.36523 -0.15871,0.64182 -2.35871,0.61465 -2.2,-0.0272 -2.93858,-0.326 -1.64129,-0.66406 z M 709,741.78363 c 0.91667,-0.36989 2.41667,-0.36989 3.33333,0 0.91667,0.36988 0.16667,0.67251 -1.66666,0.67251 -1.83334,0 -2.58334,-0.30263 -1.66667,-0.67251 z m 22.75,-1.36112 c 0.9625,-0.38516 2.1125,-0.33779 2.55556,0.10527 0.44305,0.44305 -0.34445,0.75818 -1.75,0.70029 -1.55326,-0.064 -1.8692,-0.37992 -0.80556,-0.80556 z M 749,739.11696 c 0.91667,-0.36988 2.41667,-0.36988 3.33333,0 0.91667,0.36988 0.16667,0.67251 -1.66666,0.67251 -1.83334,0 -2.58334,-0.30263 -1.66667,-0.67251 z m 18.75,-1.36111 c 0.9625,-0.38516 2.1125,-0.33779 2.55556,0.10526 0.44305,0.44306 -0.34445,0.75819 -1.75,0.70029 -1.55326,-0.064 -1.8692,-0.37992 -0.80556,-0.80555 z m -330.08333,-5.37752 c 2.01666,-0.3055 5.31666,-0.3055 7.33333,0 2.01667,0.3055 0.36667,0.55545 -3.66667,0.55545 -4.03333,0 -5.68333,-0.24995 -3.66666,-0.55545 z m 94.66666,-0.025 c 3.48334,-0.27466 9.18334,-0.27466 12.66667,0 3.48333,0.27467 0.63333,0.49939 -6.33333,0.49939 -6.96667,0 -9.81667,-0.22472 -6.33334,-0.49939 z m 64.01834,-1.31005 c 2.02675,-0.30648 5.02675,-0.29829 6.66666,0.0182 1.63992,0.31648 -0.0183,0.56723 -3.685,0.55722 -3.66666,-0.01 -5.00841,-0.26895 -2.98166,-0.57542 z m 39.98166,-1.29566 c 1.28334,-0.33537 3.38334,-0.33537 4.66667,0 1.28333,0.33537 0.23333,0.60976 -2.33333,0.60976 -2.56667,0 -3.61667,-0.27439 -2.33334,-0.60976 z m 33.35871,-1.33822 c 1.29729,-0.33806 3.09729,-0.31583 4,0.0494 0.90271,0.36523 -0.15871,0.64182 -2.35871,0.61465 -2.2,-0.0272 -2.93858,-0.326 -1.64129,-0.66405 z M 697,727.11696 c 0.91667,-0.36988 2.41667,-0.36988 3.33333,0 0.91667,0.36988 0.16667,0.67251 -1.66666,0.67251 -1.83334,0 -2.58334,-0.30263 -1.66667,-0.67251 z m 24.08333,-1.36111 c 0.9625,-0.38516 2.1125,-0.33779 2.55556,0.10526 0.44305,0.44306 -0.34445,0.75819 -1.75,0.70029 -1.55326,-0.064 -1.8692,-0.37992 -0.80556,-0.80555 z m 20,-1.33334 c 0.9625,-0.38516 2.1125,-0.33779 2.55556,0.10527 0.44305,0.44305 -0.34445,0.75818 -1.75,0.70029 -1.55326,-0.064 -1.8692,-0.37992 -0.80556,-0.80556 z m 20,-1.33333 c 0.9625,-0.38516 2.1125,-0.33779 2.55556,0.10526 0.44305,0.44306 -0.34445,0.75819 -1.75,0.7003 -1.55326,-0.064 -1.8692,-0.37992 -0.80556,-0.80556 z m 16,-1.33333 c 0.9625,-0.38516 2.1125,-0.33779 2.55556,0.10526 0.44305,0.44306 -0.34445,0.75819 -1.75,0.70029 -1.55326,-0.064 -1.8692,-0.37992 -0.80556,-0.80555 z m 13.33334,-1.33334 c 0.9625,-0.38516 2.1125,-0.33779 2.55555,0.10527 0.44306,0.44305 -0.34444,0.75818 -1.75,0.70029 -1.55326,-0.064 -1.8692,-0.37992 -0.80555,-0.80556 z m -386.05352,-9.75584 c 0,-3.3 0.26002,-4.65 0.57783,-3 0.3178,1.65 0.3178,4.35 0,6 -0.31781,1.65 -0.57783,0.3 -0.57783,-3 z m 378.05352,-8.91082 c 0.9625,-0.38516 2.1125,-0.33779 2.55555,0.10526 0.44306,0.44306 -0.34444,0.75819 -1.75,0.70029 -1.55326,-0.064 -1.8692,-0.37992 -0.80555,-0.80555 z m -44,-4 c 0.9625,-0.38516 2.1125,-0.33779 2.55555,0.10526 0.44306,0.44306 -0.34444,0.75819 -1.75,0.70029 -1.55326,-0.064 -1.8692,-0.37992 -0.80555,-0.80555 z M 721,696.45029 c 0.91667,-0.36988 2.41667,-0.36988 3.33333,0 0.91667,0.36989 0.16667,0.67252 -1.66666,0.67252 -1.83334,0 -2.58334,-0.30263 -1.66667,-0.67252 z m -18.58333,-1.36111 c 0.9625,-0.38516 2.1125,-0.33779 2.55555,0.10526 0.44306,0.44306 -0.34444,0.75819 -1.75,0.7003 -1.55326,-0.064 -1.8692,-0.37992 -0.80555,-0.80556 z m -20.08334,-1.30555 c 0.91667,-0.36989 2.41667,-0.36989 3.33334,0 0.91666,0.36988 0.16666,0.67251 -1.66667,0.67251 -1.83333,0 -2.58333,-0.30263 -1.66667,-0.67251 z M 663.75,692.42251 c 0.9625,-0.38516 2.1125,-0.33779 2.55556,0.10527 0.44305,0.44305 -0.34445,0.75818 -1.75,0.70029 -1.55326,-0.064 -1.8692,-0.37992 -0.80556,-0.80556 z m -54.05796,-2.67983 c 1.29729,-0.33806 3.09729,-0.31583 4,0.0494 0.90271,0.36524 -0.15871,0.64183 -2.35871,0.61466 -2.2,-0.0272 -2.93858,-0.326 -1.64129,-0.66406 z m -38.02537,-1.35032 c 1.65,-0.31781 4.35,-0.31781 6,0 1.65,0.3178 0.3,0.57782 -3,0.57782 -3.3,0 -4.65,-0.26002 -3,-0.57782 z M 448.37356,687.0183 c 3.50546,-0.27556 8.90546,-0.27224 12,0.007 3.09454,0.27963 0.22644,0.5051 -6.37356,0.50104 -6.6,-0.004 -9.1319,-0.23286 -5.62644,-0.50843 z m 53.29311,-0.009 c 5.68333,-0.24993 14.98333,-0.24993 20.66666,0 5.68334,0.24994 1.03334,0.45443 -10.33333,0.45443 -11.36667,0 -16.01667,-0.20449 -10.33333,-0.45443 z m 275.41666,-1.25307 c 0.9625,-0.38516 2.1125,-0.33779 2.55556,0.10526 0.44305,0.44306 -0.34445,0.75819 -1.75,0.70029 -1.55326,-0.064 -1.8692,-0.37992 -0.80556,-0.80555 z m -150.20614,-3.08918 c 0,-1.83334 0.30263,-2.58334 0.67252,-1.66667 0.36988,0.91667 0.36988,2.41667 0,3.33333 -0.36989,0.91667 -0.67252,0.16667 -0.67252,-1.66666 z m 135.53948,1.75584 c 0.9625,-0.38516 2.1125,-0.33779 2.55555,0.10527 0.44306,0.44305 -0.34444,0.75818 -1.75,0.70029 -1.55326,-0.064 -1.8692,-0.37992 -0.80555,-0.80556 z m -16,-1.33333 c 0.9625,-0.38516 2.1125,-0.33779 2.55555,0.10526 0.44306,0.44306 -0.34444,0.75819 -1.75,0.7003 -1.55326,-0.064 -1.8692,-0.37992 -0.80555,-0.80556 z m -16,-1.33333 c 0.9625,-0.38516 2.1125,-0.33779 2.55555,0.10526 0.44306,0.44306 -0.34444,0.75819 -1.75,0.70029 -1.55326,-0.064 -1.8692,-0.37992 -0.80555,-0.80555 z M 711.75,680.42251 c 0.9625,-0.38516 2.1125,-0.33779 2.55556,0.10527 0.44305,0.44305 -0.34445,0.75818 -1.75,0.70029 -1.55326,-0.064 -1.8692,-0.37992 -0.80556,-0.80556 z M 693,679.11696 c 0.91667,-0.36988 2.41667,-0.36988 3.33333,0 0.91667,0.36988 0.16667,0.67251 -1.66666,0.67251 -1.83334,0 -2.58334,-0.30263 -1.66667,-0.67251 z m -18.58333,-1.36111 c 0.9625,-0.38516 2.1125,-0.33779 2.55555,0.10526 0.44306,0.44306 -0.34444,0.75819 -1.75,0.70029 -1.55326,-0.064 -1.8692,-0.37992 -0.80555,-0.80555 z m -20,-1.33334 c 0.9625,-0.38516 2.1125,-0.33779 2.55555,0.10527 0.44306,0.44305 -0.34444,0.75818 -1.75,0.70029 -1.55326,-0.064 -1.8692,-0.37992 -0.80555,-0.80556 z m -61.40112,-2.69886 c 1.65855,-0.31892 4.05855,-0.30681 5.33333,0.0269 1.27478,0.33372 -0.0822,0.59466 -3.01555,0.57986 -2.93333,-0.0148 -3.97633,-0.28784 -2.31778,-0.60677 z M 970,672 c 1.32732,-1.46667 2.7133,-2.66667 3.07997,-2.66667 0.36666,0 -0.41932,1.2 -1.74664,2.66667 -1.32731,1.46667 -2.7133,2.66667 -3.07996,2.66667 -0.36667,0 0.41931,-1.2 1.74663,-2.66667 z m -424.33333,0.37833 c 2.01666,-0.3055 5.31666,-0.3055 7.33333,0 2.01667,0.3055 0.36667,0.55545 -3.66667,0.55545 -4.03333,0 -5.68333,-0.24995 -3.66666,-0.55545 z m 632.24943,-6.045 L 1174,662 l 4.3333,3.91612 c 2.3834,2.15387 4.3334,4.10387 4.3334,4.33333 0,1.03009 -1.1002,0.12316 -4.7506,-3.91612 z M 1079.75,643.08918 c 0.9625,-0.38516 2.1125,-0.33779 2.5556,0.10526 0.443,0.44306 -0.3445,0.75819 -1.75,0.7003 -1.5533,-0.064 -1.8692,-0.37992 -0.8056,-0.80556 z m 6.6667,-14.66667 c 0.9625,-0.38516 2.1125,-0.33779 2.5555,0.10527 0.4431,0.44305 -0.3444,0.75818 -1.75,0.70029 -1.5532,-0.064 -1.8692,-0.37992 -0.8055,-0.80556 z m -16.0834,-1.30555 c 0.9167,-0.36988 2.4167,-0.36988 3.3334,0 0.9166,0.36988 0.1666,0.67251 -1.6667,0.67251 -1.8333,0 -2.5833,-0.30263 -1.6667,-0.67251 z" id="path19" data-index="3"></path>
      <path style="fill:#7d8581" d="m 496.56239,932 c 0,-15.03333 0.19445,-21.18333 0.43212,-13.66667 0.23766,7.51667 0.23766,19.81667 0,27.33334 -0.23767,7.51666 -0.43212,1.36666 -0.43212,-13.66667 z m 586.61811,2.66667 c 0,-9.16667 0.213,-12.91667 0.4734,-8.33334 0.2603,4.58334 0.2603,12.08334 0,16.66667 -0.2604,4.58333 -0.4734,0.83333 -0.4734,-8.33333 z M 572.33333,923.00431 c 8.61667,-0.23225 22.71667,-0.23225 31.33334,0 8.61666,0.23225 1.56666,0.42227 -15.66667,0.42227 -17.23333,0 -24.28333,-0.19002 -15.66667,-0.42227 z m 355.33334,-8.4e-4 c 9.71666,-0.22781 25.61666,-0.22781 35.33333,0 9.71667,0.22781 1.76667,0.41421 -17.66667,0.41421 -19.43333,0 -27.38333,-0.1864 -17.66666,-0.41421 z m -151.56141,-6.44791 c 0.064,-1.55326 0.37992,-1.8692 0.80556,-0.80556 0.38516,0.9625 0.33779,2.1125 -0.10526,2.55556 -0.44306,0.44305 -0.75819,-0.34445 -0.7003,-1.75 z m 97.53741,-11.22223 c 0,-2.56666 0.27439,-3.61666 0.60976,-2.33333 0.33537,1.28333 0.33537,3.38333 0,4.66667 -0.33537,1.28333 -0.60976,0.23333 -0.60976,-2.33334 z M 675,905.74757 c 1.28333,-0.33537 3.38333,-0.33537 4.66667,0 1.28333,0.33537 0.23333,0.60976 -2.33334,0.60976 -2.56666,0 -3.61666,-0.27439 -2.33333,-0.60976 z m 363.3489,-0.0239 c 1.6585,-0.31892 4.0585,-0.30681 5.3333,0.0269 1.2748,0.33372 -0.082,0.59466 -3.0155,0.57986 -2.9334,-0.0148 -3.9764,-0.28784 -2.3178,-0.60677 z m 44.5777,-2.39032 c 0.027,-2.2 0.326,-2.93858 0.6641,-1.64129 0.338,1.29729 0.3158,3.09729 -0.05,4 -0.3652,0.90271 -0.6418,-0.15871 -0.6146,-2.35871 z m 22.6667,-18.66666 c 0.027,-2.2 0.326,-2.93858 0.664,-1.64129 0.3381,1.29729 0.3158,3.09729 -0.049,4 -0.3652,0.90271 -0.6418,-0.15871 -0.6146,-2.35871 z m -231.81169,-22 c 0,-5.5 0.23536,-7.75 0.52301,-5 0.28766,2.75 0.28766,7.25 0,10 -0.28765,2.75 -0.52301,0.5 -0.52301,-5 z M 1105.8066,846 c 0,-6.6 0.2214,-9.4681 0.501,-6.37356 0.2797,3.09454 0.283,8.49454 0.01,12 -0.2755,3.50546 -0.5043,0.97356 -0.5084,-5.62644 z m -232.21334,-9.33333 c 0.0272,-2.2 0.326,-2.93858 0.66406,-1.64129 0.33806,1.29729 0.31583,3.09729 -0.0494,4 -0.36524,0.90271 -0.64183,-0.15871 -0.61466,-2.35871 z M 556.33333,747.0809 c 1.28334,-0.33537 3.38334,-0.33537 4.66667,0 1.28333,0.33537 0.23333,0.60976 -2.33333,0.60976 -2.56667,0 -3.61667,-0.27439 -2.33334,-0.60976 z M 611.75,745.75585 c 0.9625,-0.38516 2.1125,-0.33779 2.55556,0.10526 0.44305,0.44306 -0.34445,0.75819 -1.75,0.70029 -1.55326,-0.064 -1.8692,-0.37992 -0.80556,-0.80555 z m 66.66667,-2.66667 c 0.9625,-0.38516 2.1125,-0.33779 2.55555,0.10526 0.44306,0.44306 -0.34444,0.75819 -1.75,0.7003 -1.55326,-0.064 -1.8692,-0.37992 -0.80555,-0.80556 z M 552.33333,732.41423 c 1.28334,-0.33537 3.38334,-0.33537 4.66667,0 1.28333,0.33537 0.23333,0.60977 -2.33333,0.60977 -2.56667,0 -3.61667,-0.2744 -2.33334,-0.60977 z m 54,-1.29727 c 0.91667,-0.36988 2.41667,-0.36988 3.33334,0 0.91666,0.36988 0.16666,0.67251 -1.66667,0.67251 -1.83333,0 -2.58333,-0.30263 -1.66667,-0.67251 z M 643.75,729.75585 c 0.9625,-0.38516 2.1125,-0.33779 2.55556,0.10526 0.44305,0.44306 -0.34445,0.75819 -1.75,0.70029 -1.55326,-0.064 -1.8692,-0.37992 -0.80556,-0.80555 z M 581,688.45029 c 0.91667,-0.36988 2.41667,-0.36988 3.33333,0 0.91667,0.36989 0.16667,0.67252 -1.66666,0.67252 -1.83334,0 -2.58334,-0.30263 -1.66667,-0.67252 z m -142.66667,-1.33333 c 0.91667,-0.36988 2.41667,-0.36988 3.33334,0 0.91666,0.36988 0.16666,0.67251 -1.66667,0.67251 -1.83333,0 -2.58333,-0.30263 -1.66667,-0.67251 z m 94.66667,0 c 0.91667,-0.36988 2.41667,-0.36988 3.33333,0 0.91667,0.36988 0.16667,0.67251 -1.66666,0.67251 -1.83334,0 -2.58334,-0.30263 -1.66667,-0.67251 z m 3.33333,-14.70273 c 1.28334,-0.33537 3.38334,-0.33537 4.66667,0 1.28333,0.33537 0.23333,0.60977 -2.33333,0.60977 -2.56667,0 -3.61667,-0.2744 -2.33334,-0.60977 z m 530.08337,-45.32505 c 0.9625,-0.38516 2.1125,-0.33779 2.5555,0.10526 0.4431,0.44306 -0.3444,0.75819 -1.75,0.7003 -1.5532,-0.064 -1.8692,-0.37992 -0.8055,-0.80556 z" id="path18" data-index="4"></path>
      <path style="fill:#7a817d" d="m 759.28318,896.66667 c 2.6e-4,-35.2 0.17241,-49.40852 0.38256,-31.57449 0.21015,17.83403 0.20994,46.63403 -4.7e-4,64 -0.21041,17.36597 -0.38235,2.77449 -0.38209,-32.42551 z m 114.60826,38 c 0,-14.3 0.19615,-20.15 0.4359,-13 0.23974,7.15 0.23974,18.85 0,26 -0.23975,7.15 -0.4359,1.3 -0.4359,-13 z M 388.5509,934 c 10e-4,-13.2 0.20094,-18.41965 0.44342,-11.59922 0.24248,6.82042 0.24133,17.62042 -0.003,24 C 388.7479,952.78035 388.5495,947.2 388.5509,934 Z m 694.3757,20 c 0.027,-2.2 0.326,-2.93858 0.6641,-1.64129 0.338,1.29729 0.3158,3.09729 -0.05,4 -0.3652,0.90271 -0.6418,-0.15871 -0.6146,-2.35871 z m 22.9328,-14.66667 c 0,-10.26666 0.2114,-14.29041 0.4651,-8.94166 0.2537,5.34875 0.252,13.74875 0,18.66666 -0.2558,4.91792 -0.4634,0.54167 -0.4613,-9.725 z m -385.45985,6 c 0,-4.03333 0.24996,-5.68333 0.55546,-3.66666 0.3055,2.01666 0.3055,5.31666 0,7.33333 -0.3055,2.01667 -0.55546,0.36667 -0.55546,-3.66667 z m -16.29429,-19.44444 c 0.064,-1.55326 0.37992,-1.8692 0.80556,-0.80556 0.38516,0.9625 0.33779,2.1125 -0.10526,2.55556 -0.44306,0.44305 -0.75819,-0.34445 -0.7003,-1.75 z m -153.75638,-2.8319 c 1.65855,-0.31893 4.05855,-0.30682 5.33333,0.0269 1.27479,0.33373 -0.0822,0.59466 -3.01554,0.57987 -2.93334,-0.0148 -3.97634,-0.28785 -2.31779,-0.60677 z M 1210.4966,919 c -1.6585,-2.11474 -1.6113,-2.1619 0.5034,-0.50341 2.221,1.74183 2.9273,2.83674 1.8299,2.83674 -0.2768,0 -1.3268,-1.05 -2.3333,-2.33333 z m -532.16327,0.11696 c 0.91667,-0.36988 2.41667,-0.36988 3.33334,0 0.91666,0.36988 0.16666,0.67251 -1.66667,0.67251 -1.83333,0 -2.58333,-0.30263 -1.66667,-0.67251 z M 1105.8471,904 c 0,-9.16667 0.2131,-12.91667 0.4734,-8.33333 0.2604,4.58333 0.2604,12.08333 0,16.66666 -0.2603,4.58334 -0.4734,0.83334 -0.4734,-8.33333 z m -22.7991,8.66667 c 0.01,-3.66667 0.269,-5.00842 0.5754,-2.98167 0.3065,2.02675 0.2983,5.02675 -0.018,6.66667 -0.3164,1.63991 -0.5672,-0.0183 -0.5572,-3.685 z M 720.10526,901.88889 c 0.064,-1.55326 0.37992,-1.8692 0.80556,-0.80556 0.38516,0.9625 0.33779,2.1125 -0.10526,2.55556 -0.44306,0.44305 -0.75819,-0.34445 -0.7003,-1.75 z m 153.7323,-15.22222 c 0,-8.43334 0.21649,-11.88334 0.48109,-7.66667 0.2646,4.21667 0.2646,11.11667 0,15.33333 -0.2646,4.21667 -0.48109,0.76667 -0.48109,-7.66666 z m -479.17089,4.82992 c 0,-0.27687 1.05,-1.32687 2.33333,-2.33333 2.11474,-1.65849 2.1619,-1.61133 0.50341,0.50341 -1.74183,2.22099 -2.83674,2.9273 -2.83674,1.82992 z m 622.66663,0 c 0,-0.27687 1.05,-1.32687 2.3334,-2.33333 2.1147,-1.65849 2.1619,-1.61133 0.5034,0.50341 -1.7419,2.22099 -2.8368,2.9273 -2.8368,1.82992 z m -440.97459,-9.75391 c 1.29729,-0.33806 3.09729,-0.31583 4,0.0494 0.90271,0.36524 -0.15871,0.64183 -2.35871,0.61466 -2.2,-0.0272 -2.93858,-0.326 -1.64129,-0.66406 z M 1105.814,869.33333 c 0,-6.96666 0.2247,-9.81666 0.4994,-6.33333 0.2747,3.48333 0.2747,9.18333 0,12.66667 -0.2747,3.48333 -0.4994,0.63333 -0.4994,-6.33334 z m -395.31741,8.33334 c -1.65849,-2.11474 -1.61133,-2.1619 0.50341,-0.50341 1.28333,1.00646 2.33333,2.05646 2.33333,2.33333 0,1.09738 -1.09491,0.39107 -2.83674,-1.82992 z M 439.82993,875 c -1.6585,-2.11474 -1.61134,-2.1619 0.5034,-0.50341 2.221,1.74183 2.92731,2.83674 1.82993,2.83674 -0.27687,0 -1.32687,-1.05 -2.33333,-2.33333 z m 433.90296,-28.33333 c 0,-4.03334 0.24995,-5.68334 0.55545,-3.66667 0.3055,2.01667 0.3055,5.31667 0,7.33333 -0.3055,2.01667 -0.55545,0.36667 -0.55545,-3.66666 z M 546.33333,747.05902 c 1.65,-0.3178 4.35,-0.3178 6,0 1.65,0.31781 0.3,0.57783 -3,0.57783 -3.3,0 -4.65,-0.26002 -3,-0.57783 z m 59.35871,-1.31634 c 1.29729,-0.33806 3.09729,-0.31583 4,0.0494 0.90271,0.36524 -0.15871,0.64183 -2.35871,0.61466 -2.2,-0.0272 -2.93858,-0.326 -1.64129,-0.66406 z M 645,744.45029 c 0.91667,-0.36988 2.41667,-0.36988 3.33333,0 0.91667,0.36989 0.16667,0.67252 -1.66666,0.67252 -1.83334,0 -2.58334,-0.30263 -1.66667,-0.67252 z m 58.75,-2.69444 c 0.9625,-0.38516 2.1125,-0.33779 2.55556,0.10526 0.44305,0.44306 -0.34445,0.75819 -1.75,0.70029 -1.55326,-0.064 -1.8692,-0.37992 -0.80556,-0.80555 z m -143.39129,-9.3465 c 1.29729,-0.33806 3.09729,-0.31583 4,0.0494 0.90271,0.36523 -0.15871,0.64182 -2.35871,0.61465 -2.2,-0.0272 -2.93858,-0.326 -1.64129,-0.66405 z m 51.30796,-1.29239 c 0.91666,-0.36988 2.41666,-0.36988 3.33333,0 0.91667,0.36988 0.16667,0.67251 -1.66667,0.67251 -1.83333,0 -2.58333,-0.30263 -1.66666,-0.67251 z M 647.75,729.75585 c 0.9625,-0.38516 2.1125,-0.33779 2.55556,0.10526 0.44305,0.44306 -0.34445,0.75819 -1.75,0.70029 -1.55326,-0.064 -1.8692,-0.37992 -0.80556,-0.80555 z m 30.66667,-1.33334 c 0.9625,-0.38516 2.1125,-0.33779 2.55555,0.10527 0.44306,0.44305 -0.34444,0.75818 -1.75,0.70029 -1.55326,-0.064 -1.8692,-0.37992 -0.80555,-0.80556 z m 69.33333,-4 c 0.9625,-0.38516 2.1125,-0.33779 2.55556,0.10527 0.44305,0.44305 -0.34445,0.75818 -1.75,0.70029 -1.55326,-0.064 -1.8692,-0.37992 -0.80556,-0.80556 z m -58.66667,-30.66666 c 0.9625,-0.38516 2.1125,-0.33779 2.55556,0.10526 0.44305,0.44306 -0.34445,0.75819 -1.75,0.70029 -1.55326,-0.064 -1.8692,-0.37992 -0.80556,-0.80555 z M 647.75,691.08918 c 0.9625,-0.38516 2.1125,-0.33779 2.55556,0.10526 0.44305,0.44306 -0.34445,0.75819 -1.75,0.7003 -1.55326,-0.064 -1.8692,-0.37992 -0.80556,-0.80556 z m -28.72462,-1.3465 c 1.29729,-0.33806 3.09729,-0.31583 4,0.0494 0.90271,0.36524 -0.15871,0.64183 -2.35871,0.61466 -2.2,-0.0272 -2.93858,-0.326 -1.64129,-0.66406 z m -32.69205,-1.29239 c 0.91667,-0.36988 2.41667,-0.36988 3.33334,0 0.91666,0.36989 0.16666,0.67252 -1.66667,0.67252 -1.83333,0 -2.58333,-0.30263 -1.66667,-0.67252 z m -47.30795,-1.37428 c 1.29729,-0.33806 3.09729,-0.31582 4,0.0494 0.90271,0.36523 -0.15871,0.64182 -2.35871,0.61465 -2.2,-0.0272 -2.93858,-0.326 -1.64129,-0.66406 z m 628.80452,-9.40934 c -1.6585,-2.11474 -1.6113,-2.1619 0.5034,-0.50341 2.221,1.74183 2.9273,2.83674 1.83,2.83674 -0.2769,0 -1.3269,-1.05 -2.3334,-2.33333 z M 647.75,676.42251 c 0.9625,-0.38516 2.1125,-0.33779 2.55556,0.10527 0.44305,0.44305 -0.34445,0.75818 -1.75,0.70029 -1.55326,-0.064 -1.8692,-0.37992 -0.80556,-0.80556 z m -64.08333,-2.63888 c 0.91666,-0.36989 2.41666,-0.36989 3.33333,0 0.91667,0.36988 0.16667,0.67251 -1.66667,0.67251 -1.83333,0 -2.58333,-0.30263 -1.66666,-0.67251 z m -144.64834,-1.40707 c 2.02675,-0.30647 5.02675,-0.29828 6.66667,0.0182 1.63992,0.31648 -0.0183,0.56723 -3.685,0.55722 -3.66667,-0.01 -5.00842,-0.26895 -2.98167,-0.57542 z m 83.315,-0.008 c 2.38334,-0.29577 6.28334,-0.29577 8.66667,0 2.38333,0.29576 0.43333,0.53776 -4.33333,0.53776 -4.76667,0 -6.71667,-0.242 -4.33334,-0.53776 z M 1061.0155,641.7234 c 1.6586,-0.31892 4.0586,-0.30681 5.3334,0.0269 1.2748,0.33372 -0.082,0.59466 -3.0156,0.57986 -2.9333,-0.0148 -3.9763,-0.28784 -2.3178,-0.60677 z m -0.6568,-14.64764 c 1.2973,-0.33806 3.0973,-0.31582 4,0.0494 0.9027,0.36523 -0.1587,0.64182 -2.3587,0.61465 -2.2,-0.0272 -2.9386,-0.326 -1.6413,-0.66406 z" id="path17" data-index="5"></path>
      <path style="fill:#535c5a" d="m 1242.3333,964.45029 c 0.9167,-0.36988 2.4167,-0.36988 3.3334,0 0.9166,0.36989 0.1666,0.67252 -1.6667,0.67252 -1.8333,0 -2.5833,-0.30263 -1.6667,-0.67252 z m -554.68886,-3.28241 c 0.90445,-0.91122 1.98033,-1.32089 2.39084,-0.91038 0.41052,0.41052 -0.32948,1.15607 -1.64444,1.65678 -1.90027,0.72358 -2.05342,0.57042 -0.7464,-0.7464 z m 16.5797,-5.66447 c -0.20335,-4.68432 -0.44058,-5.00029 -2.55747,-3.40636 -2.2133,1.66652 -2.21494,1.62756 -0.0317,-0.75738 3.02438,-3.30386 3.99403,-2.08809 3.34435,4.19324 l -0.531,5.13376 z m 16.03579,-0.17008 c 0.0272,-2.2 0.326,-2.93858 0.66406,-1.64129 0.33806,1.29729 0.31582,3.09729 -0.0494,4 -0.36523,0.90271 -0.64182,-0.15871 -0.61465,-2.35871 z m 340.40677,-0.66666 C 1061.994,953.2 1063.38,952 1063.7466,952 c 0.3667,0 -0.4193,1.2 -1.7466,2.66667 -1.3273,1.46666 -2.7133,2.66666 -3.08,2.66666 -0.3666,0 0.4194,-1.2 1.7467,-2.66666 z m 194.2105,-1.33334 c 0,-1.83333 0.3026,-2.58333 0.6725,-1.66666 0.3699,0.91666 0.3699,2.41666 0,3.33333 -0.3699,0.91667 -0.6725,0.16667 -0.6725,-1.66667 z m -76.4605,-2.24415 c 0.9625,-0.38516 2.1125,-0.33779 2.5555,0.10526 0.4431,0.44306 -0.3444,0.75819 -1.75,0.7003 -1.5532,-0.064 -1.8692,-0.37992 -0.8055,-0.80556 z m 5.25,0.0278 c 0.9166,-0.36988 2.4166,-0.36988 3.3333,0 0.9167,0.36988 0.1667,0.67251 -1.6667,0.67251 -1.8333,0 -2.5833,-0.30263 -1.6666,-0.67251 z m -526.50344,-5.45029 c -1.65849,-2.11474 -1.61133,-2.1619 0.50341,-0.50341 2.22099,1.74183 2.9273,2.83674 1.82992,2.83674 -0.27687,0 -1.32687,-1.05 -2.33333,-2.33333 z m 36.17007,1.91612 c 0,-0.22947 1.95,-2.17947 4.33334,-4.33334 L 702,939.33333 l -3.91612,4.33334 c -3.65038,4.03927 -4.75055,4.9462 -4.75055,3.91612 z m 326.49657,-1.91612 c -1.6585,-2.11474 -1.6113,-2.1619 0.5034,-0.50341 1.2834,1.00646 2.3334,2.05646 2.3334,2.33333 0,1.09738 -1.0949,0.39107 -2.8368,-1.82992 z m 38.8368,-0.83674 c 0,-0.27688 1.05,-1.32688 2.3333,-2.33334 2.1147,-1.65849 2.1619,-1.61133 0.5034,0.50341 -1.7418,2.221 -2.8367,2.92731 -2.8367,1.82993 z M 555.20665,941 l -2.53998,-3 3,2.53998 c 2.81926,2.38696 3.60698,3.46002 2.53998,3.46002 -0.25301,0 -1.60301,-1.35 -3,-3 z m 49.46002,0.33333 c 1.32731,-1.46666 2.7133,-2.66666 3.07996,-2.66666 0.36667,0 -0.41931,1.2 -1.74663,2.66666 C 604.67268,942.8 603.2867,944 602.92003,944 c -0.36666,0 0.41932,-1.2 1.74664,-2.66667 z m 395.66953,-4.66666 c 0.015,-2.93334 0.2879,-3.97634 0.6068,-2.31779 0.3189,1.65855 0.3068,4.05855 -0.027,5.33333 -0.3337,1.27479 -0.5947,-0.0822 -0.5799,-3.01554 z m -362.74294,0 c 0.0272,-2.2 0.326,-2.93858 0.66406,-1.64129 0.33806,1.29729 0.31583,3.09729 -0.0494,4 -0.36524,0.90271 -0.64183,-0.15871 -0.61466,-2.35871 z m 82.92903,-15.33334 c 0,-9.9 0.2099,-13.95 0.46644,-9 0.25655,4.95 0.25655,13.05 0,18 -0.25654,4.95 -0.46644,0.9 -0.46644,-9 z m 295.73761,14 c 0.027,-2.2 0.326,-2.93858 0.6641,-1.64129 0.338,1.29729 0.3158,3.09729 -0.049,4 -0.3652,0.90271 -0.6418,-0.15871 -0.6147,-2.35871 z m 201.1787,1.22223 c 0.064,-1.55326 0.3799,-1.8692 0.8056,-0.80556 0.3851,0.9625 0.3377,2.1125 -0.1053,2.55556 -0.4431,0.44305 -0.7582,-0.34445 -0.7003,-1.75 z M 656,927.49659 c 0,-0.27687 1.05,-1.32687 2.33333,-2.33333 2.11474,-1.65849 2.1619,-1.61133 0.50341,0.50341 -1.74183,2.22099 -2.83674,2.9273 -2.83674,1.82992 z m 410.8772,-2.16326 c 0,-1.83333 0.3026,-2.58333 0.6725,-1.66666 0.3699,0.91666 0.3699,2.41666 0,3.33333 -0.3699,0.91667 -0.6725,0.16667 -0.6725,-1.66667 z M 673,919.11696 c 0.91667,-0.36988 2.41667,-0.36988 3.33333,0 0.91667,0.36988 0.16667,0.67251 -1.66666,0.67251 -1.83334,0 -2.58334,-0.30263 -1.66667,-0.67251 z m 10.66667,0 c 0.91666,-0.36988 2.41666,-0.36988 3.33333,0 0.91667,0.36988 0.16667,0.67251 -1.66667,0.67251 -1.83333,0 -2.58333,-0.30263 -1.66666,-0.67251 z m 208.59326,-2.45029 c 0.0272,-2.2 0.326,-2.93858 0.66406,-1.64129 0.33806,1.29729 0.31582,3.09729 -0.0494,4 -0.36523,0.90271 -0.64182,-0.15871 -0.61465,-2.35871 z m 146.07337,2.3688 c 2.3834,-0.29577 6.2834,-0.29577 8.6667,0 2.3833,0.29577 0.4333,0.53776 -4.3333,0.53776 -4.7667,0 -6.7167,-0.24199 -4.3334,-0.53776 z m -414.22804,-6.47991 c 0.064,-1.55326 0.37992,-1.8692 0.80556,-0.80556 0.38516,0.9625 0.33779,2.1125 -0.10526,2.55556 -0.44306,0.44305 -0.75819,-0.34445 -0.7003,-1.75 z m -93.33333,-1.33334 c 0.064,-1.55326 0.37992,-1.8692 0.80556,-0.80555 0.38516,0.9625 0.33779,2.1125 -0.10527,2.55555 -0.44305,0.44306 -0.75818,-0.34444 -0.70029,-1.75 z m -142.66667,-2.66666 c 0.064,-1.55326 0.37992,-1.8692 0.80556,-0.80556 0.38516,0.9625 0.33779,2.1125 -0.10526,2.55556 -0.44306,0.44305 -0.75819,-0.34445 -0.7003,-1.75 z m 316.10527,-3.22223 c 0,-1.83333 0.30263,-2.58333 0.67251,-1.66666 0.36988,0.91666 0.36988,2.41666 0,3.33333 -0.36988,0.91667 -0.67251,0.16667 -0.67251,-1.66667 z m 362.56137,0.55556 c 0.064,-1.55326 0.38,-1.8692 0.8056,-0.80556 0.3851,0.9625 0.3378,2.1125 -0.1053,2.55556 -0.443,0.44305 -0.7582,-0.34445 -0.7003,-1.75 z m -554.56137,-7.22222 c 0,-1.83334 0.30263,-2.58334 0.67251,-1.66667 0.36988,0.91667 0.36988,2.41667 0,3.33333 -0.36988,0.91667 -0.67251,0.16667 -0.67251,-1.66666 z M 1142.8772,896 c 0,-1.83333 0.3026,-2.58333 0.6725,-1.66667 0.3699,0.91667 0.3699,2.41667 0,3.33334 -0.3699,0.91666 -0.6725,0.16666 -0.6725,-1.66667 z m 16.0494,-2 c 0.027,-2.2 0.326,-2.93858 0.6641,-1.64129 0.338,1.29729 0.3158,3.09729 -0.05,4 -0.3652,0.90271 -0.6418,-0.15871 -0.6146,-2.35871 z m -704.25993,-1.17007 c 0,-0.27688 1.05,-1.32688 2.33333,-2.33334 2.11474,-1.65849 2.1619,-1.61133 0.50341,0.50341 -1.74183,2.221 -2.83674,2.92731 -2.83674,1.82993 z m 100,-1.33334 c 0,-0.27687 1.05,-1.32687 2.33333,-2.33333 2.11474,-1.65849 2.1619,-1.61133 0.50341,0.50341 -1.74183,2.22099 -2.83674,2.9273 -2.83674,1.82992 z M 1160,888.82993 c 0,-0.27688 1.05,-1.32688 2.3333,-2.33334 2.1148,-1.65849 2.1619,-1.61133 0.5034,0.50341 -1.7418,2.221 -2.8367,2.92731 -2.8367,1.82993 z M 856.75239,884.9425 c 0.50071,-1.31496 1.24626,-2.05496 1.65677,-1.64445 0.41052,0.41052 8.5e-4,1.48639 -0.91038,2.39084 -1.31682,1.30702 -1.46997,1.15387 -0.74639,-0.74639 z m 183.60631,-3.19982 c 1.2973,-0.33806 3.0973,-0.31583 4,0.0494 0.9027,0.36524 -0.1587,0.64183 -2.3587,0.61466 -2.2,-0.0272 -2.9386,-0.326 -1.6413,-0.66406 z m 135.308,-0.017 c 1.65,-0.3178 4.35,-0.3178 6,0 1.65,0.3178 0.3,0.57782 -3,0.57782 -3.3,0 -4.65,-0.26002 -3,-0.57782 z M 646,878.66667 C 647.32732,877.2 648.7133,876 649.07997,876 c 0.36666,0 -0.41932,1.2 -1.74664,2.66667 -1.32731,1.46666 -2.7133,2.66666 -3.07996,2.66666 -0.36667,0 0.41931,-1.2 1.74663,-2.66666 z m 360.6667,2.16326 c 0,-0.27688 1.05,-1.32688 2.3333,-2.33334 2.1147,-1.65849 2.1619,-1.61133 0.5034,0.50341 -1.7418,2.221 -2.8367,2.92731 -2.8367,1.82993 z M 857.4386,835.22222 c 0.064,-1.55326 0.37992,-1.8692 0.80555,-0.80555 0.38516,0.9625 0.33779,2.1125 -0.10526,2.55555 -0.44306,0.44306 -0.75819,-0.34444 -0.70029,-1.75 z m -108.42305,-5.49857 c 1.65855,-0.31892 4.05855,-0.30681 5.33333,0.0269 1.27478,0.33372 -0.0822,0.59466 -3.01555,0.57986 -2.93333,-0.0148 -3.97633,-0.28784 -2.31778,-0.60677 z m 115.31778,0.0239 c 1.28334,-0.33537 3.38334,-0.33537 4.66667,0 1.28333,0.33537 0.23333,0.60976 -2.33333,0.60976 -2.56667,0 -3.61667,-0.27439 -2.33334,-0.60976 z m 247.99997,0 c 1.2834,-0.33537 3.3834,-0.33537 4.6667,0 1.2833,0.33537 0.2333,0.60976 -2.3333,0.60976 -2.5667,0 -3.6167,-0.27439 -2.3334,-0.60976 z m -45.3079,-40.00489 c 1.2973,-0.33806 3.0973,-0.31583 4,0.0494 0.9027,0.36524 -0.1587,0.64183 -2.3587,0.61466 -2.2,-0.0272 -2.9386,-0.326 -1.6413,-0.66406 z m -12.1482,-7.07601 c 0,-1.83334 0.3026,-2.58334 0.6725,-1.66667 0.3699,0.91667 0.3699,2.41667 0,3.33333 -0.3699,0.91667 -0.6725,0.16667 -0.6725,-1.66666 z m 22.2061,-7.57749 c 0.9625,-0.38516 2.1125,-0.33779 2.5556,0.10526 0.443,0.44306 -0.3445,0.75819 -1.75,0.7003 -1.5533,-0.064 -1.8692,-0.37992 -0.8056,-0.80556 z M 437.66667,747.02871 c 2.75,-0.28766 7.25,-0.28766 10,0 2.75,0.28766 0.5,0.52302 -5,0.52302 -5.5,0 -7.75,-0.23536 -5,-0.52302 z m 84,-0.014 c 4.21666,-0.2646 11.11666,-0.2646 15.33333,0 4.21667,0.2646 0.76667,0.48109 -7.66667,0.48109 -8.43333,0 -11.88333,-0.21649 -7.66666,-0.48109 z m 73.35166,-1.30479 c 2.02675,-0.30647 5.02675,-0.29828 6.66667,0.0182 1.63992,0.31648 -0.0183,0.56723 -3.685,0.55722 -3.66667,-0.01 -5.00842,-0.26895 -2.98167,-0.57542 z m 586.31497,0.45337 c 0,-0.27687 1.05,-1.32687 2.3334,-2.33333 2.1147,-1.6585 2.1619,-1.61134 0.5034,0.5034 -1.7419,2.221 -2.8368,2.92731 -2.8368,1.82993 z m -544.31775,-1.77294 c 1.65855,-0.31893 4.05855,-0.30682 5.33333,0.0269 1.27478,0.33372 -0.0822,0.59466 -3.01555,0.57986 -2.93333,-0.0148 -3.97633,-0.28785 -2.31778,-0.60677 z m 529.65115,-3.72365 c 2.4877,-2.5667 4.8231,-4.6667 5.1897,-4.6667 0.3667,0 -1.3687,2.1 -3.8564,4.66667 -2.4877,2.56666 -4.8231,4.66666 -5.1898,4.66666 -0.3666,0 1.3688,-2.1 3.8565,-4.66666 z m -496.97466,2.40934 c 1.29729,-0.33806 3.09729,-0.31582 4,0.0494 0.90271,0.36523 -0.15871,0.64182 -2.35871,0.61465 -2.2,-0.0272 -2.93858,-0.326 -1.64129,-0.66406 z m 28,-1.33333 c 1.29729,-0.33806 3.09729,-0.31583 4,0.0494 0.90271,0.36524 -0.15871,0.64183 -2.35871,0.61466 -2.2,-0.0272 -2.93858,-0.326 -1.64129,-0.66406 z m 24.72463,-1.32017 c 0.9625,-0.38516 2.1125,-0.33779 2.55555,0.10527 0.44306,0.44305 -0.34444,0.75818 -1.75,0.70029 -1.55326,-0.064 -1.8692,-0.37992 -0.80555,-0.80556 z m 17.25,-1.30555 c 0.91666,-0.36988 2.41666,-0.36988 3.33333,0 0.91667,0.36988 0.16667,0.67251 -1.66667,0.67251 -1.83333,0 -2.58333,-0.30263 -1.66666,-0.67251 z m 18.66666,-1.33333 c 0.91667,-0.36989 2.41667,-0.36989 3.33334,0 0.91666,0.36988 0.16666,0.67251 -1.66667,0.67251 -1.83333,0 -2.58333,-0.30263 -1.66667,-0.67251 z m 16,-1.33334 c 0.91667,-0.36988 2.41667,-0.36988 3.33334,0 0.91666,0.36989 0.16666,0.67252 -1.66667,0.67252 -1.83333,0 -2.58333,-0.30263 -1.66667,-0.67252 z m 14.75,-1.36111 c 0.9625,-0.38516 2.1125,-0.33779 2.55556,0.10526 0.44305,0.44306 -0.34445,0.75819 -1.75,0.7003 -1.55326,-0.064 -1.8692,-0.37992 -0.80556,-0.80556 z M 569,732.36881 c 2.38333,-0.29577 6.28333,-0.29577 8.66667,0 2.38333,0.29576 0.43333,0.53776 -4.33334,0.53776 -4.76666,0 -6.71666,-0.242 -4.33333,-0.53776 z m 49.33333,-1.30979 c 1.65,-0.3178 4.35,-0.3178 6,0 1.65,0.31781 0.3,0.57783 -3,0.57783 -3.3,0 -4.65,-0.26002 -3,-0.57783 z m 34,-1.31145 c 1.28334,-0.33537 3.38334,-0.33537 4.66667,0 1.28333,0.33537 0.23333,0.60976 -2.33333,0.60976 -2.56667,0 -3.61667,-0.27439 -2.33334,-0.60976 z M 683,728.41423 c 1.28333,-0.33537 3.38333,-0.33537 4.66667,0 1.28333,0.33537 0.23333,0.60977 -2.33334,0.60977 -2.56666,0 -3.61666,-0.2744 -2.33333,-0.60977 z m 25.35871,-1.33822 c 1.29729,-0.33806 3.09729,-0.31582 4,0.0494 0.90271,0.36523 -0.15871,0.64182 -2.35871,0.61465 -2.2,-0.0272 -2.93858,-0.326 -1.64129,-0.66406 z m 21.97462,-1.29238 c 0.91667,-0.36989 2.41667,-0.36989 3.33334,0 0.91666,0.36988 0.16666,0.67251 -1.66667,0.67251 -1.83333,0 -2.58333,-0.30263 -1.66667,-0.67251 z M 751.75,724.42251 c 0.9625,-0.38516 2.1125,-0.33779 2.55556,0.10527 0.44305,0.44305 -0.34445,0.75818 -1.75,0.70029 -1.55326,-0.064 -1.8692,-0.37992 -0.80556,-0.80556 z m 17.33333,-1.33333 c 0.9625,-0.38516 2.1125,-0.33779 2.55556,0.10526 0.44305,0.44306 -0.34445,0.75819 -1.75,0.7003 -1.55326,-0.064 -1.8692,-0.37992 -0.80556,-0.80556 z M 783.75,721.75585 c 0.9625,-0.38516 2.1125,-0.33779 2.55556,0.10526 0.44305,0.44306 -0.34445,0.75819 -1.75,0.70029 -1.55326,-0.064 -1.8692,-0.37992 -0.80556,-0.80555 z m 33.33333,-4 c 0.9625,-0.38516 2.1125,-0.33779 2.55556,0.10526 0.44305,0.44306 -0.34445,0.75819 -1.75,0.70029 -1.55326,-0.064 -1.8692,-0.37992 -0.80556,-0.80555 z m 379.02197,-5.20029 c 0.064,-1.55326 0.3799,-1.8692 0.8055,-0.80556 0.3852,0.9625 0.3378,2.1125 -0.1052,2.55556 -0.4431,0.44305 -0.7582,-0.34445 -0.7003,-1.75 z m -344.77197,-1.88889 c -2.17387,-0.93415 -2.25001,-1.16323 -0.41202,-1.23962 1.24005,-0.0516 2.62547,0.50628 3.07869,1.23962 0.94755,1.53317 0.90122,1.53317 -2.66667,0 z M 1196.2105,704 c 0,-1.83333 0.3027,-2.58333 0.6725,-1.66667 0.3699,0.91667 0.3699,2.41667 0,3.33334 -0.3698,0.91666 -0.6725,0.16666 -0.6725,-1.66667 z m -395.12717,-0.91082 c 0.9625,-0.38516 2.1125,-0.33779 2.55556,0.10526 0.44305,0.44306 -0.34445,0.75819 -1.75,0.7003 -1.55326,-0.064 -1.8692,-0.37992 -0.80556,-0.80556 z m -26.66666,-2.66667 c 0.9625,-0.38516 2.1125,-0.33779 2.55555,0.10527 0.44306,0.44305 -0.34444,0.75818 -1.75,0.70029 -1.55326,-0.064 -1.8692,-0.37992 -0.80555,-0.80556 z m -13.33334,-1.33333 c 0.9625,-0.38516 2.1125,-0.33779 2.55556,0.10526 0.44305,0.44306 -0.34445,0.75819 -1.75,0.7003 -1.55326,-0.064 -1.8692,-0.37992 -0.80556,-0.80556 z M 745,697.78363 c 0.91667,-0.36989 2.41667,-0.36989 3.33333,0 0.91667,0.36988 0.16667,0.67251 -1.66666,0.67251 -1.83334,0 -2.58334,-0.30263 -1.66667,-0.67251 z m -14.58333,-1.36112 c 0.9625,-0.38516 2.1125,-0.33779 2.55555,0.10527 0.44306,0.44305 -0.34444,0.75818 -1.75,0.70029 -1.55326,-0.064 -1.8692,-0.37992 -0.80555,-0.80556 z M 711.75,695.08918 c 0.9625,-0.38516 2.1125,-0.33779 2.55556,0.10526 0.44305,0.44306 -0.34445,0.75819 -1.75,0.7003 -1.55326,-0.064 -1.8692,-0.37992 -0.80556,-0.80556 z m -18.66667,-1.33333 c 0.9625,-0.38516 2.1125,-0.33779 2.55556,0.10526 0.44305,0.44306 -0.34445,0.75819 -1.75,0.70029 -1.55326,-0.064 -1.8692,-0.37992 -0.80556,-0.80555 z M 673,692.45029 c 0.91667,-0.36988 2.41667,-0.36988 3.33333,0 0.91667,0.36989 0.16667,0.67252 -1.66666,0.67252 -1.83334,0 -2.58334,-0.30263 -1.66667,-0.67252 z m 157.41667,-0.0278 c 0.9625,-0.38516 2.1125,-0.33779 2.55555,0.10527 0.44306,0.44305 -0.34444,0.75818 -1.75,0.70029 -1.55326,-0.064 -1.8692,-0.37992 -0.80555,-0.80556 z m -178.05796,-1.3465 c 1.29729,-0.33806 3.09729,-0.31582 4,0.0494 0.90271,0.36523 -0.15871,0.64182 -2.35871,0.61465 -2.2,-0.0272 -2.93858,-0.326 -1.64129,-0.66406 z m 167.39129,0.0132 c 0.9625,-0.38516 2.1125,-0.33779 2.55556,0.10526 0.44305,0.44306 -0.34445,0.75819 -1.75,0.7003 -1.55326,-0.064 -1.8692,-0.37992 -0.80556,-0.80556 z m -10.66667,-1.33333 c 0.9625,-0.38516 2.1125,-0.33779 2.55556,0.10526 0.44305,0.44306 -0.34445,0.75819 -1.75,0.70029 -1.55326,-0.064 -1.8692,-0.37992 -0.80556,-0.80555 z m -216.75,-1.34162 c 1.28334,-0.33537 3.38334,-0.33537 4.66667,0 1.28333,0.33537 0.23333,0.60977 -2.33333,0.60977 -2.56667,0 -3.61667,-0.2744 -2.33334,-0.60977 z m 203.41667,0.008 c 0.9625,-0.38516 2.1125,-0.33779 2.55556,0.10527 0.44305,0.44305 -0.34445,0.75818 -1.75,0.70029 -1.55326,-0.064 -1.8692,-0.37992 -0.80556,-0.80556 z m -248.73167,-1.37928 c 2.02675,-0.30648 5.02675,-0.29829 6.66667,0.0182 1.63992,0.31648 -0.0183,0.56723 -3.685,0.55722 -3.66667,-0.01 -5.00842,-0.26895 -2.98167,-0.57542 z m 91.90827,-2.37656 c 0.0272,-2.2 0.326,-2.93858 0.66405,-1.64129 0.33806,1.29729 0.31583,3.09729 -0.0494,4 -0.36523,0.90271 -0.64182,-0.15871 -0.61465,-2.35871 z m 144.8234,2.42251 c 0.9625,-0.38516 2.1125,-0.33779 2.55556,0.10526 0.44305,0.44306 -0.34445,0.75819 -1.75,0.7003 -1.55326,-0.064 -1.8692,-0.37992 -0.80556,-0.80556 z m -13.33333,-1.33333 c 0.9625,-0.38516 2.1125,-0.33779 2.55555,0.10526 0.44306,0.44306 -0.34444,0.75819 -1.75,0.70029 -1.55326,-0.064 -1.8692,-0.37992 -0.80555,-0.80555 z m -16,-1.33334 c 0.9625,-0.38516 2.1125,-0.33779 2.55555,0.10527 0.44306,0.44305 -0.34444,0.75818 -1.75,0.70029 -1.55326,-0.064 -1.8692,-0.37992 -0.80555,-0.80556 z m -16.08334,-1.30555 c 0.91667,-0.36988 2.41667,-0.36988 3.33334,0 0.91666,0.36988 0.16666,0.67251 -1.66667,0.67251 -1.83333,0 -2.58333,-0.30263 -1.66667,-0.67251 z M 721,681.78363 c 0.91667,-0.36989 2.41667,-0.36989 3.33333,0 0.91667,0.36988 0.16667,0.67251 -1.66666,0.67251 -1.83334,0 -2.58334,-0.30263 -1.66667,-0.67251 z m -18.66667,-1.33334 c 0.91667,-0.36988 2.41667,-0.36988 3.33334,0 0.91666,0.36989 0.16666,0.67252 -1.66667,0.67252 -1.83333,0 -2.58333,-0.30263 -1.66667,-0.67252 z m -18.66666,-1.33333 c 0.91666,-0.36988 2.41666,-0.36988 3.33333,0 0.91667,0.36988 0.16667,0.67251 -1.66667,0.67251 -1.83333,0 -2.58333,-0.30263 -1.66666,-0.67251 z m -20,-1.33333 c 0.91666,-0.36989 2.41666,-0.36989 3.33333,0 0.91667,0.36988 0.16667,0.67251 -1.66667,0.67251 -1.83333,0 -2.58333,-0.30263 -1.66666,-0.67251 z m -21.33334,-1.33334 c 0.91667,-0.36988 2.41667,-0.36988 3.33334,0 0.91666,0.36989 0.16666,0.67252 -1.66667,0.67252 -1.83333,0 -2.58333,-0.30263 -1.66667,-0.67252 z m -33.30945,-1.4166 c 2.39647,-0.29675 5.99647,-0.29062 8,0.0136 2.00353,0.30423 0.0428,0.54702 -4.35721,0.53954 -4.4,-0.007 -6.03926,-0.2564 -3.64279,-0.55315 z m 554.80602,-1.36702 c -1.6585,-2.11474 -1.6113,-2.1619 0.5034,-0.50341 1.2834,1.00646 2.3334,2.05646 2.3334,2.33333 0,1.09738 -1.0949,0.39107 -2.8368,-1.82992 z m -590.1449,0.0432 c 2.02675,-0.30647 5.02675,-0.29828 6.66667,0.0182 1.63991,0.31648 -0.0183,0.56723 -3.685,0.55722 -3.66667,-0.01 -5.00842,-0.26895 -2.98167,-0.57542 z m 608.8116,-1.37656 c -1.6585,-2.11474 -1.6113,-2.1619 0.5034,-0.5034 2.221,1.74182 2.9273,2.83674 1.8299,2.83674 -0.2768,0 -1.3268,-1.05 -2.3333,-2.33334 z m -716.75022,0.003 c 10.12718,-0.22679 26.32718,-0.22621 36,10e-4 9.67283,0.22751 1.38695,0.41307 -18.41305,0.41235 -19.8,-7.1e-4 -27.71412,-0.18686 -17.58695,-0.41365 z m 491.58695,-7.41994 c 0,-0.22946 1.95,-2.17946 4.33334,-4.33333 L 966,656.66667 962.08388,661 c -3.65038,4.03927 -4.75055,4.9462 -4.75055,3.91612 z m 77.08337,-21.82694 c 0.9625,-0.38516 2.1125,-0.33779 2.5555,0.10526 0.4431,0.44306 -0.3444,0.75819 -1.75,0.7003 -1.5532,-0.064 -1.8692,-0.37992 -0.8055,-0.80556 z m 35.2753,-1.3465 c 1.2973,-0.33806 3.0973,-0.31583 4,0.0494 0.9028,0.36524 -0.1587,0.64183 -2.3587,0.61466 -2.2,-0.0272 -2.9385,-0.326 -1.6413,-0.66406 z m -14.8148,-7.07601 c 0,-1.83334 0.3026,-2.58334 0.6725,-1.66667 0.3699,0.91667 0.3699,2.41667 0,3.33333 -0.3699,0.91667 -0.6725,0.16667 -0.6725,-1.66666 z m 24.8728,-6.24416 c 0.9625,-0.38516 2.1125,-0.33779 2.5556,0.10527 0.443,0.44305 -0.3445,0.75818 -1.75,0.70029 -1.5533,-0.064 -1.8692,-0.37992 -0.8056,-0.80556 z" id="path16" data-index="6"></path>
      <path style="fill: rgb(56, 72, 73); opacity: 1;" d="m 562.50593,962.34711 c -20.49108,-7.19753 -31.12165,-22.63635 -30.99471,-45.01378 0.0729,-12.85565 3.14225,-22.97184 9.50676,-31.33333 15.89174,-20.87806 48.53912,-23.77024 68.68214,-6.08444 6.21643,5.4581 12.51809,18.33938 14.16967,28.96436 2.32403,14.95105 5.55005,13.78675 -38.19975,13.78675 h -38.01895 l 0.80796,4.97891 c 1.21397,7.48081 7.24373,15.04478 15.38264,19.2966 5.8899,3.07692 8.78373,3.7194 16.6439,3.6952 10.58164,-0.0326 16.88462,-2.30134 25.36442,-9.12999 6.10598,-4.91705 6.6583,-4.99908 10.14999,-1.50739 4.00765,4.00765 3.26646,7.84233 -2.59321,13.4165 -11.20881,10.66269 -34.39043,14.72992 -50.90086,8.93061 z M 608,907.5323 c 0,-7.59933 -7.20397,-18.35232 -15.07724,-22.50501 -8.51042,-4.48874 -22.21862,-4.22508 -30.40028,0.58473 C 554.66651,890.23036 548,899.96572 548,906.81975 c 0,2.38808 1.4979,2.51358 30,2.51358 24.30482,0 30,-0.3419 30,-1.80103 z m 50.85833,56.27262 c -7.4647,-2.14836 -14.58508,-7.73186 -17.47619,-13.7041 -3.53276,-7.29771 -3.58832,-19.38265 -0.1242,-27.01263 6.13136,-13.50475 26.76111,-19.31889 53.27999,-15.01605 4.94731,0.80273 9.0338,0.88946 9.71702,0.20625 1.81042,-1.81042 -0.28254,-11.91872 -3.45463,-16.68475 -4.23014,-6.35572 -11.28033,-9.26292 -22.21386,-9.16004 -10.40183,0.0979 -18.67533,3.1263 -23.81888,8.71862 -3.794,4.12502 -6.83566,4.45584 -9.89426,1.07613 -7.28932,-8.05461 5.24628,-19.53084 25.11264,-22.99042 9.95405,-1.73342 23.88228,-0.83109 30.61882,1.98362 6.83924,2.85761 13.50803,9.58766 16.58276,16.73507 2.7112,6.30236 2.83938,8.40352 2.5017,41.00971 l -0.35591,34.367 H 712.66667 706 l -0.40301,-7 c -0.44377,-7.70787 -1.76288,-8.68792 -5.01438,-3.7255 -1.18004,1.80097 -6.44919,5.40097 -11.70921,8 -7.90924,3.90802 -10.94559,4.7047 -17.55188,4.60525 -4.3935,-0.0661 -10.00194,-0.69981 -12.46319,-1.40816 z m 28.44494,-13.2921 c 9.72773,-2.70063 17.99624,-14.11481 18.02263,-24.87915 0.01,-3.95207 -3.21937,-5.10775 -17.62411,-6.30765 -14.13026,-1.17705 -23.39718,0.74068 -29.03695,6.00902 -3.40846,3.18398 -3.99817,4.7158 -3.99817,10.38553 0,7.38175 2.15785,10.92509 8.66666,14.23122 4.68697,2.38073 16.42571,2.65548 23.96994,0.56103 z m 121.09651,12.41925 c -14.77864,-5.28029 -23.91347,-14.72098 -28.44729,-29.39979 -7.58633,-24.56166 1.63203,-49.82819 21.96327,-60.19895 8.35632,-4.26247 10.14196,-4.66666 20.61648,-4.66666 10.23688,0 12.2396,0.42746 18.65876,3.98253 3.95505,2.19039 9.00529,6.24015 11.22274,8.99948 2.21746,2.75932 4.31386,4.73483 4.65868,4.39001 0.34482,-0.34482 0.50752,-10.24253 0.36155,-21.99492 -0.14597,-11.75239 0.14412,-24.09888 0.64465,-27.43664 l 0.91005,-6.06865 6.839,0.39742 6.839,0.39743 v 66 66 l -5.95165,0.42393 c -7.26861,0.51772 -9.38169,-1.73734 -9.38169,-10.0121 0,-3.15984 -0.3,-5.74516 -0.66666,-5.74516 -0.36667,0 -3.10399,2.43732 -6.08294,5.41627 -10.54331,10.54331 -28.17575,14.52082 -42.18395,9.5158 z M 838,948.05047 c 7.73065,-3.70728 12.33266,-8.40269 16.03969,-16.3652 10.60842,-22.78632 -5.08255,-49.0186 -29.32073,-49.0186 -12.70437,0 -22.25919,6.45266 -28.08524,18.96682 -8.12639,17.45523 -0.25015,39.58025 16.69961,46.91058 6.58,2.84568 18.18776,2.6134 24.66667,-0.4936 z m 86.74027,14.55509 c -22.04224,-7.82233 -32.50565,-24.48969 -31.07924,-49.50671 1.1083,-19.43796 9.44029,-32.53407 25.81363,-40.57351 6.99324,-3.43374 9.25359,-3.85867 20.52534,-3.85867 11.3037,0 13.47935,0.41179 20.21929,3.82699 13.99351,7.09065 22.3489,19.10717 25.31575,36.4085 2.55193,14.88175 5.6493,13.76451 -38.15986,13.76451 -42.25573,0 -39.98409,-0.57102 -35.97427,9.04282 4.9347,11.83135 16.0247,18.88058 29.77773,18.92789 11.18047,0.0385 17.626,-2.02505 24.37807,-7.80458 3.04508,-2.60647 6.47943,-4.87743 7.63188,-5.04657 3.20076,-0.46978 6.81141,3.53719 6.81141,7.55906 0,5.07368 -5.2323,10.12359 -15.43708,14.89899 -11.93569,5.58538 -28.04583,6.54063 -39.82265,2.36128 z m 44.59306,-55.98172 c 0,-1.49022 -0.82494,-4.68386 -1.8332,-7.09697 -7.84728,-18.78118 -32.52082,-24.23449 -47.68082,-10.53834 -5.82746,5.26476 -8.33625,9.37851 -9.76467,16.01147 l -0.93319,4.33333 h 30.10594 c 29.37567,0 30.10594,-0.0657 30.10594,-2.70949 z m 52.19167,57.18108 c -7.0037,-2.01568 -14.1245,-7.3729 -17.2926,-13.00987 -3.7855,-6.73541 -3.9299,-19.72897 -0.3078,-27.70686 6.1314,-13.50475 26.7611,-19.31889 53.28,-15.01605 4.8652,0.78941 9.0387,0.88452 9.7022,0.22109 2.2649,-2.26489 -1.6156,-14.81475 -6.0272,-19.49236 -9.5599,-10.13643 -32.9375,-8.8419 -43.4454,2.40578 -3.8057,4.07368 -6.8479,4.38783 -9.8942,1.0217 -10.2167,-11.28931 16.963,-26.32092 42.8053,-23.6733 15.758,1.61446 24.987,7.9421 29.6117,20.30264 2.5575,6.83559 2.7295,9.76914 2.399,40.91956 l -0.356,33.55608 -6.3385,0.4066 c -5.7802,0.37079 -6.4554,0.0989 -7.6666,-3.0868 -0.7305,-1.92137 -1.3282,-5.3761 -1.3282,-7.67719 v -4.1838 l -5,4.85881 c -7.5215,7.3091 -17.9895,11.67881 -27.6667,11.54911 -4.4,-0.059 -10.0137,-0.68679 -12.475,-1.39514 z m 28.069,-13.37388 c 8.4195,-2.52256 15.2103,-10.12663 17.078,-19.12351 1.118,-5.3855 1.1622,-8.00669 0.1518,-9.01706 -0.7834,-0.78344 -7.6376,-2.02218 -15.2315,-2.75276 -12.2739,-1.18082 -14.6809,-1.04383 -21.6759,1.23365 -8.3033,2.70349 -13.9187,8.52524 -13.9143,14.42582 0,4.88833 4.5017,11.82423 9.3104,14.35641 5.3793,2.83262 16.4236,3.23173 24.2815,0.87745 z m 117.7393,13.10904 c -14.2341,-3.70946 -26,-11.95633 -26,-18.22378 0,-3.39376 4.7622,-9.3163 7.4911,-9.3163 0.7255,0 3.2652,2.0078 5.6437,4.46177 7.1925,7.42076 15.1988,10.63008 26.8411,10.75919 11.012,0.12213 15.4035,-1.66605 19.5197,-7.94816 2.8003,-4.27379 1.2228,-10.62782 -3.5066,-14.12436 -1.8272,-1.35096 -11.7223,-4.56138 -21.989,-7.13427 -19.6762,-4.93099 -23.409,-6.78591 -28.4486,-14.13677 -2.6717,-3.8969 -3.0456,-5.81977 -2.6255,-13.50144 0.3496,-6.39429 1.277,-10.01877 3.241,-12.66667 8.0623,-10.87026 23.3587,-15.59098 40.8178,-12.59707 10.963,1.87994 22.0484,7.47665 24.9718,12.60755 1.7437,3.06036 1.7098,3.95112 -0.3118,8.19036 -2.9403,6.16598 -6.64,6.20011 -12.549,0.11577 -13.6179,-14.02191 -45.1487,-9.03311 -41.2437,6.52558 1.301,5.18356 6.2283,7.59222 25.3351,12.3847 19.2246,4.82203 26.1974,8.58548 30.3417,16.37635 4.6504,8.74266 2.0523,24.65806 -5.0558,30.96988 -8.2658,7.33976 -28.7358,10.83762 -42.473,7.25767 z M 373.6,962.4 c -1.17924,-1.17924 -1.6,-13.07206 -1.6,-45.22428 0,-23.99336 0.36419,-44.57336 0.80932,-45.73334 0.98312,-2.56197 11.1567,-2.94303 13.59068,-0.50905 0.88,0.88 1.61174,4.63 1.6261,8.33334 l 0.0261,6.73333 4.79341,-5.71754 c 6.02149,-7.18238 13.51882,-11.05559 23.05788,-11.91197 13.46149,-1.20852 25.41121,4.59432 29.42731,14.29004 0.91267,2.20338 2.03661,3.96947 2.49764,3.92466 0.46103,-0.0448 2.63824,-2.55977 4.83824,-5.5888 6.17585,-8.50313 14.85925,-12.3301 27.97231,-12.32805 12.49695,0.002 19.76588,3.23353 25.26818,11.23355 6.11694,8.89369 6.50066,11.3492 7.12259,45.57904 0.69973,38.51164 0.61943,38.86147 -8.78059,38.25535 L 498,963.33333 497.33333,930.66667 c -0.57717,-28.28147 -0.99895,-33.33505 -3.14195,-37.64565 -3.51309,-7.06653 -9.46626,-10.35435 -18.74831,-10.35435 -8.15143,0 -13.06211,1.9106 -17.71277,6.89151 -6.35036,6.80131 -7.06363,11.05578 -7.06363,42.13233 0,20.86294 -0.45327,29.56276 -1.6,30.70949 -0.88,0.88 -3.76,1.6 -6.4,1.6 -2.64,0 -5.52,-0.72 -6.4,-1.6 -1.14532,-1.14531 -1.62061,-10.14432 -1.67251,-31.66667 -0.0605,-25.0627 -0.45285,-31.05914 -2.35776,-36.03001 -3.02212,-7.8862 -9.11853,-12.03665 -17.68011,-12.03665 -11.14667,0 -17.61352,3.9351 -23.00724,14 -2.62495,4.89824 -2.89572,7.72632 -3.31914,34.66666 -0.27605,17.564 -1.01513,30.00205 -1.84206,31 -1.76068,2.12484 -10.68317,2.17135 -12.78785,0.0667 z m 370.48417,-0.90939 c -1.71194,-3.1988 -1.96784,-126.55843 -0.26809,-129.23868 0.73379,-1.15707 3.31887,-1.60785 7.64625,-1.33333 L 758,831.33333 v 66 66 l -6.24916,0.40295 c -5.11657,0.32992 -6.50607,-0.0771 -7.66667,-2.24567 z m 363.19353,0.84272 c -0.3513,-0.91666 -0.4824,-30.76666 -0.2915,-66.33333 l 0.3471,-64.66667 6.5377,-0.41473 c 4.3274,-0.27452 6.9125,0.17626 7.6463,1.33333 1.5907,2.50835 1.4477,124.12323 -0.151,128.32794 -1.1332,2.98057 -2.081,3.42013 -7.3751,3.42013 -3.6304,0 -6.3319,-0.67065 -6.7135,-1.66667 z m 130.07,-0.72024 c -3.9597,-3.20637 -4.0553,-11.49806 -0.1773,-15.37605 3.5173,-3.51734 11.0377,-3.66866 14.7633,-0.29706 3.6773,3.3279 3.7135,11.74612 0.066,15.39335 -3.356,3.35599 -10.6806,3.49584 -14.6523,0.27976 z M 1057.5802,789.54522 c -1.1299,-0.73655 -1.6039,-3.22897 -1.3334,-7.0107 l 0.4199,-5.86785 14.6666,-0.87904 c 39.373,-2.3598 76.2455,-15.69233 95.287,-34.4543 14.3448,-14.13424 18.868,-28.27816 14.1897,-44.371 -7.9714,-27.42071 -51.0403,-50.13315 -103.2103,-54.42808 -10.0465,-0.82708 -19.0511,-1.73016 -20.0103,-2.00682 -1.1729,-0.33833 -1.6095,-2.36237 -1.3333,-6.1819 l 0.4106,-5.67886 6.6666,-0.43544 c 3.6667,-0.2395 13.453,0.25721 21.7474,1.1038 60.5742,6.18264 105.85,35.46529 110.8886,71.71857 3.7468,26.95774 -13.0992,52.10339 -45.9693,68.61734 -19.0372,9.56429 -45.8311,17.02615 -68,18.9374 -5.1333,0.44256 -12.3333,1.09154 -16,1.44219 -3.6667,0.35064 -7.4556,0.12325 -8.4198,-0.50531 z m -34.5859,-2.99256 c -6.7865,-1.42524 -15.6602,-4.0601 -19.7193,-5.85525 l -7.3803,-3.2639 2.74641,-5.38342 c 1.51049,-2.96088 3.00749,-5.38342 3.32649,-5.38342 0.319,0 5.8568,1.50806 12.3062,3.35125 6.4494,1.84319 15.2618,3.79319 19.583,4.33333 9.1014,1.13766 10.9264,3.05614 9.6053,10.09776 -1.0993,5.86013 -2.094,5.96236 -20.4678,2.10365 z M 978,768.52793 c -4.4,-2.6392 -11.9,-8.22554 -16.66667,-12.41409 -4.76666,-4.18855 -11.36666,-9.44984 -14.66666,-11.69176 -8.41963,-5.72003 -31.67788,-17.21096 -45.55371,-22.50618 -11.44496,-4.36756 -11.83739,-4.42168 -18.25133,-2.51694 C 826.68484,736.08167 683.16784,746.46273 500,747.09262 c -64.86039,0.22304 -70.39159,0.0644 -75.33333,-2.1602 -8.61607,-3.87869 -13.76389,-9.84822 -16.70551,-19.37207 -6.86462,-22.22507 1.67605,-46.25174 18.03884,-50.74696 12.50637,-3.43578 194.55432,-0.893 198.97913,2.77927 1.91995,1.59341 2.21208,7.51513 0.50373,10.21106 -0.95366,1.50496 -8.20155,1.56017 -43.75739,0.33333 -23.43793,-0.80871 -66.5644,-1.46814 -95.83661,-1.4654 -51.03027,0.005 -53.40396,0.11581 -57.63576,2.69586 -6.33958,3.86514 -8.61084,10.306 -8.04306,22.80862 0.35725,7.86687 1.12933,11.20087 3.25762,14.0672 5.62361,7.57369 1.5195,7.30677 101.19901,6.58174 132.61922,-0.96461 237.2543,-6.38356 298.66666,-15.46766 22.40661,-3.31438 31.86766,-5.38211 30.46194,-6.65751 -3.33833,-3.02885 -84.72189,-11.55685 -161.37382,-16.91002 L 640,690.12891 v -6.39779 -6.39779 h 7.31811 c 4.02496,0 24.27496,1.20631 45,2.68069 89.75644,6.38528 136.70602,11.4429 175.29299,18.88336 l 21.6111,4.16712 8.3889,-3.02057 c 21.90657,-7.88784 46.32852,-22.76505 65.4547,-39.8733 16.43875,-14.70435 37.5974,-24.49219 64.1026,-29.65339 14.8708,-2.89569 16.8316,-2.33462 16.8316,4.81609 0,5.41642 -1.653,6.75358 -9.8089,7.93483 -23.6635,3.4273 -53.60873,16.83508 -64.1911,28.74117 -2.94103,3.30891 -19.56547,16.05906 -28.13088,21.57503 -3.00532,1.93537 -10.95532,6.27665 -17.66667,9.6473 -6.71135,3.37064 -12.19735,6.57241 -12.19112,7.11505 0.006,0.54264 4.94175,3.08644 10.96783,5.65289 15.43415,6.57326 34.95019,18.45907 44.35821,27.01538 4.40222,4.00369 12.30366,10.06085 17.55875,13.46035 l 9.55471,6.18091 -2.89208,5.32755 c -1.59065,2.93015 -3.49208,5.33095 -4.22542,5.33512 C 986.6,773.32307 982.4,771.16713 978,768.52793 Z" id="path15" data-index="7"></path>
    </g>
  </g>
</svg>